<svg width="131" xmlns="http://www.w3.org/2000/svg" height="44" fill="none"><g style="fill: rgb(0, 0, 0);"><g style="fill: rgb(0, 0, 0);"><path d="M57.905,5.027C57.905,2.251,59.970,0.000,62.516,0.000C65.062,0.000,67.126,2.251,67.126,5.027C67.126,7.803,65.062,10.054,62.516,10.054C59.970,10.054,57.905,7.803,57.905,5.027ZZ" fill-rule="evenodd" style="fill: rgb(61, 145, 156); fill-opacity: 1;" class="fills"/><g style="fill: rgb(0, 0, 0);"><path d="M55.271,21.903C55.271,17.342,58.662,13.645,62.845,13.645C67.029,13.645,70.420,17.342,70.420,21.903C70.420,26.464,67.029,30.162,62.845,30.162C58.662,30.162,55.271,26.464,55.271,21.903ZZ" fill-rule="evenodd" style="fill: rgb(61, 145, 156); fill-opacity: 1;" class="fills"/><path d="M57.247,21.903C57.247,18.532,59.753,15.799,62.845,15.799C65.937,15.799,68.444,18.532,68.444,21.903C68.444,25.275,65.937,28.008,62.845,28.008C59.753,28.008,57.247,25.275,57.247,21.903ZZ" fill-rule="evenodd" style="fill: rgb(255, 255, 255);" class="fills"/><g style="fill: rgb(0, 0, 0);"><path d="M62.845,25.135L59.552,20.395L66.138,20.395L62.845,25.135ZZ" fill-rule="evenodd" style="fill: rgb(225, 61, 79);" class="fills"/><path d="M59.552,20.072C59.552,19.299,60.312,18.672,61.249,18.672C62.185,18.672,62.945,19.299,62.945,20.072C62.945,20.845,62.185,21.472,61.249,21.472C60.312,21.472,59.552,20.845,59.552,20.072ZZ" fill-rule="evenodd" style="fill: rgb(225, 61, 79);" class="fills"/><path d="M62.746,20.072C62.746,19.299,63.505,18.672,64.442,18.672C65.379,18.672,66.139,19.299,66.139,20.072C66.139,20.845,65.379,21.472,64.442,21.472C63.505,21.472,62.746,20.845,62.746,20.072ZZ" fill-rule="evenodd" style="fill: rgb(225, 61, 79);" class="fills"/></g></g><g style="fill: rgb(0, 0, 0);"><rect width="2.635" height="13.645" x="58.564" transform="matrix(1.000000, 0.000000, 0.000000, 1.000000, 0.000000, 0.000000)" fill-rule="evenodd" style="fill: rgb(61, 145, 156); fill-opacity: 1;" ry="0" rx="0" y="28.726" class="fills"/><rect width="2.635" height="13.645" x="64.492" transform="matrix(1.000000, 0.000000, 0.000000, 1.000000, 0.000000, 0.000000)" fill-rule="evenodd" style="fill: rgb(61, 145, 156); fill-opacity: 1;" ry="0" rx="0" y="28.726" class="fills"/></g><g style="fill: rgb(0, 0, 0);"><path d="M62.733,9.252L76.422,17.870L74.555,21.396L60.865,12.778L62.733,9.252ZZ" fill-rule="evenodd" style="fill: rgb(61, 145, 156); fill-opacity: 1;" class="fills"/><path d="M64.900,12.778L51.211,21.396L49.344,17.869L63.033,9.252L64.900,12.778ZZ" fill-rule="evenodd" style="fill: rgb(61, 145, 156); fill-opacity: 1;" class="fills"/></g></g><g style="fill: rgb(0, 0, 0);"><g style="fill: rgb(0, 0, 0);"><rect width="38.906" height="27.351" x="89.385" transform="matrix(1.000000, 0.000000, 0.000000, 1.000000, 0.000000, 0.000000)" fill-rule="evenodd" style="fill: rgb(61, 145, 156); fill-opacity: 1;" ry="0" rx="0" y="16.649" class="fills"/><g style="fill: rgb(0, 0, 0);"><path d="M103.175,30.324C103.175,26.548,105.710,23.486,108.838,23.486C111.966,23.486,114.502,26.548,114.502,30.324C114.502,34.101,111.966,37.162,108.838,37.162C105.710,37.162,103.175,34.101,103.175,30.324ZZ" fill-rule="evenodd" style="fill: rgb(61, 145, 156); fill-opacity: 1;" class="fills"/><path d="M104.652,30.324C104.652,27.533,106.526,25.270,108.838,25.270C111.150,25.270,113.024,27.533,113.024,30.324C113.024,33.116,111.150,35.378,108.838,35.378C106.526,35.378,104.652,33.116,104.652,30.324ZZ" fill-rule="evenodd" style="fill: rgb(255, 255, 255);" class="fills"/><g style="fill: rgb(0, 0, 0);"><path d="M108.838,33.000L106.376,29.076L111.301,29.076L108.838,33.000ZZ" fill-rule="evenodd" style="fill: rgb(225, 61, 79);" class="fills"/><path d="M106.376,28.808C106.376,28.168,106.944,27.649,107.644,27.649C108.345,27.649,108.913,28.168,108.913,28.808C108.913,29.448,108.345,29.968,107.644,29.968C106.944,29.968,106.376,29.448,106.376,28.808ZZ" fill-rule="evenodd" style="fill: rgb(225, 61, 79);" class="fills"/><path d="M108.764,28.808C108.764,28.168,109.332,27.649,110.032,27.649C110.733,27.649,111.301,28.168,111.301,28.808C111.301,29.448,110.733,29.968,110.032,29.968C109.332,29.968,108.764,29.448,108.764,28.808ZZ" fill-rule="evenodd" style="fill: rgb(225, 61, 79);" class="fills"/></g></g></g><path d="M108.838,0.000L131.000,17.243L86.677,17.243L108.838,0.000ZZ" fill-rule="evenodd" style="fill: rgb(61, 145, 156); fill-opacity: 1;" class="fills"/><rect width="5.417" height="14.27" x="119.673" transform="matrix(1.000000, 0.000000, 0.000000, 1.000000, 0.000000, 0.000000)" fill-rule="evenodd" style="fill: rgb(61, 145, 156); fill-opacity: 1;" ry="0" rx="0" y="2.378" class="fills"/></g><g style="fill: rgb(0, 0, 0);"><g style="fill: rgb(0, 0, 0);"><rect width="38.906" height="27.351" x=".183" transform="matrix(1.000000, 0.000000, 0.000000, 1.000000, 0.000000, 0.000000)" fill-rule="evenodd" style="fill: rgb(61, 145, 156); fill-opacity: 1;" ry="0" rx="0" y="11.088" class="fills"/><g style="fill: rgb(0, 0, 0);"><path d="M13.972,24.764C13.972,20.987,16.508,17.926,19.636,17.926C22.764,17.926,25.300,20.987,25.300,24.764C25.300,28.540,22.764,31.602,19.636,31.602C16.508,31.602,13.972,28.540,13.972,24.764ZZ" fill-rule="evenodd" style="fill: rgb(61, 145, 156); fill-opacity: 1;" class="fills"/><path d="M15.450,24.764C15.450,21.972,17.324,19.710,19.636,19.710C21.948,19.710,23.822,21.972,23.822,24.764C23.822,27.555,21.948,29.818,19.636,29.818C17.324,29.818,15.450,27.555,15.450,24.764ZZ" fill-rule="evenodd" style="fill: rgb(255, 255, 255);" class="fills"/><g style="fill: rgb(0, 0, 0);"><path d="M19.636,27.439L17.174,23.515L22.098,23.515L19.636,27.439ZZ" fill-rule="evenodd" style="fill: rgb(225, 61, 79);" class="fills"/><path d="M17.174,23.248C17.174,22.607,17.741,22.088,18.442,22.088C19.143,22.088,19.711,22.607,19.711,23.248C19.711,23.888,19.143,24.407,18.442,24.407C17.741,24.407,17.174,23.888,17.174,23.248ZZ" fill-rule="evenodd" style="fill: rgb(225, 61, 79);" class="fills"/><path d="M19.562,23.248C19.562,22.607,20.130,22.088,20.830,22.088C21.531,22.088,22.099,22.607,22.099,23.248C22.099,23.888,21.531,24.407,20.830,24.407C20.130,24.407,19.562,23.888,19.562,23.248ZZ" fill-rule="evenodd" style="fill: rgb(225, 61, 79);" class="fills"/></g></g></g><rect width="5.91" height="2.973" x="9.048" transform="matrix(1.000000, 0.000000, 0.000000, 1.000000, 0.000000, 0.000000)" fill-rule="evenodd" style="fill: rgb(61, 145, 156); fill-opacity: 1;" ry="0" rx="0" y="8.115" class="fills"/><rect width="7.387" height="4.162" x="22.837" transform="matrix(1.000000, 0.000000, 0.000000, 1.000000, 0.000000, 0.000000)" fill-rule="evenodd" style="fill: rgb(61, 145, 156); fill-opacity: 1;" ry="0" rx="0" y="6.926" class="fills"/></g></g></svg>