<svg width="24" xmlns="http://www.w3.org/2000/svg" height="24" fill="none"><g style="fill: rgb(0, 0, 0);"><path d="M12.000,11.993C11.586,11.993,11.250,12.329,11.250,12.743L11.250,12.749C11.250,13.163,11.586,13.499,12.000,13.499L12.006,13.499C12.420,13.499,12.756,13.163,12.756,12.749L12.756,12.743C12.756,12.329,12.420,11.993,12.000,11.993ZL12.000,11.993ZZ" style="fill: rgb(0, 0, 0);" class="fills"/><path d="M12.000,16.494C11.585,16.494,11.250,16.829,11.250,17.244L11.250,17.249C11.250,17.663,11.585,17.999,12.000,17.999L12.005,17.999C12.419,17.999,12.755,17.663,12.755,17.249L12.755,17.244C12.755,16.829,12.419,16.494,12.000,16.494ZL12.000,16.494ZZ" style="fill: rgb(0, 0, 0);" class="fills"/><path d="M8.999,17.244C8.999,16.830,9.335,16.494,9.749,16.494L9.755,16.494C10.169,16.494,10.505,16.830,10.505,17.244L10.505,17.250C10.505,17.664,10.169,18.000,9.755,18.000L9.749,18.000C9.335,18.000,8.999,17.664,8.999,17.244ZL8.999,17.244ZZ" style="fill: rgb(0, 0, 0);" class="fills"/><path d="M7.499,16.494C7.085,16.494,6.749,16.829,6.749,17.244L6.749,17.249C6.749,17.663,7.085,17.999,7.499,17.999L7.504,17.999C7.919,17.999,8.255,17.663,8.255,17.249L8.255,17.244C8.255,16.829,7.919,16.494,7.499,16.494ZL7.499,16.494ZZ" style="fill: rgb(0, 0, 0);" class="fills"/><path d="M13.499,14.997C13.499,14.582,13.835,14.247,14.249,14.247L14.255,14.247C14.669,14.247,15.005,14.582,15.005,14.997L15.005,15.002C15.005,15.417,14.669,15.752,14.255,15.752L14.249,15.752C13.835,15.752,13.499,15.417,13.499,14.997ZL13.499,14.997ZZ" style="fill: rgb(0, 0, 0);" class="fills"/><path d="M14.250,16.494C13.836,16.494,13.500,16.830,13.500,17.244L13.500,17.250C13.500,17.664,13.836,18.000,14.250,18.000L14.255,18.000C14.669,18.000,15.005,17.664,15.005,17.250L15.005,17.244C15.005,16.830,14.669,16.494,14.250,16.494ZL14.250,16.494ZZ" style="fill: rgb(0, 0, 0);" class="fills"/><path d="M15.750,14.995C15.750,14.581,16.086,14.245,16.500,14.245L16.505,14.245C16.920,14.245,17.255,14.581,17.255,14.995L17.255,15.001C17.255,15.415,16.920,15.751,16.505,15.751L16.500,15.751C16.086,15.751,15.750,15.415,15.750,14.995ZL15.750,14.995ZZ" style="fill: rgb(0, 0, 0);" class="fills"/><path d="M13.498,12.743C13.498,12.329,13.834,11.993,14.248,11.993L16.498,11.993C16.912,11.993,17.248,12.329,17.248,12.743C17.248,13.157,16.912,13.493,16.498,13.493L14.248,13.493C13.834,13.493,13.498,13.157,13.498,12.743ZZ" style="fill: rgb(0, 0, 0);" class="fills"/><path d="M6.748,14.993C6.748,14.579,7.084,14.243,7.498,14.243L11.998,14.243C12.412,14.243,12.748,14.579,12.748,14.993C12.748,15.408,12.412,15.743,11.998,15.743L7.498,15.743C7.084,15.743,6.748,15.408,6.748,14.993ZZ" style="fill: rgb(0, 0, 0);" class="fills"/><path d="M18.000,2.993C18.000,2.579,17.664,2.243,17.250,2.243C16.836,2.243,16.500,2.579,16.500,2.993L16.500,4.492L7.500,4.492L7.500,2.995C7.500,2.580,7.164,2.245,6.750,2.245C6.335,2.245,6.000,2.580,6.000,2.995L6.000,4.492L5.248,4.492C3.591,4.492,2.248,5.835,2.248,7.492L2.248,18.744C2.248,20.400,3.591,21.744,5.248,21.744L18.748,21.744C20.405,21.744,21.748,20.400,21.748,18.744L21.748,7.492C21.748,5.835,20.405,4.492,18.748,4.492L18.000,4.492L18.000,2.993ZZM3.748,18.744L3.748,11.243C3.748,10.415,4.420,9.743,5.248,9.743L18.748,9.743C19.576,9.743,20.248,10.415,20.248,11.243L20.248,18.744C20.248,19.572,19.576,20.244,18.748,20.244L5.248,20.244C4.420,20.244,3.748,19.572,3.748,18.744ZZ" fill-rule="evenodd" clip-rule="evenodd" style="fill: rgb(0, 0, 0);" class="fills"/></g></svg>