<?xml version="1.0" encoding="utf-8"?>
<svg width="23" height="23" viewBox="0 0 23 23" fill="none" xmlns="http://www.w3.org/2000/svg">
  <g>
    <rect width="23" height="23" />
    <path id="Shape" d="M9.58333 0C7.06984 0 4.61097 0.930039 2.84037 3.07621C1.06978 5.22239 0 8.51498 0 13.1771C0 13.1771 0 15.5729 0 15.5729C0 17.0199 1.18844 18.2083 2.63542 18.2083C2.63542 18.2083 7.13041 18.2083 7.13041 18.2083C8.00677 18.809 8.99833 19.1667 10.0625 19.1667C11.1267 19.1667 12.1182 18.809 12.9946 18.2083C12.9946 18.2083 17.4896 18.2083 17.4896 18.2083C18.9366 18.2083 20.125 17.0199 20.125 15.5729C20.125 15.5729 20.125 13.1771 20.125 13.1771C20.125 4.1317 15.7898 1.39433 13.1977 1.23067C13.0526 1.083 12.9517 0.9363 12.5079 0.689738C11.8701 0.335376 10.901 0 9.58333 0C9.58333 0 9.58333 0 9.58333 0ZM9.58333 1.4375C10.6615 1.4375 11.3695 1.70108 11.8098 1.94568C12.25 2.19028 12.376 2.36589 12.376 2.36589C12.5125 2.53637 12.7191 2.63554 12.9375 2.63542C14.4804 2.63542 18.6875 4.30562 18.6875 13.1771C18.6875 13.1771 18.6875 15.5729 18.6875 15.5729C18.6875 16.2429 18.1596 16.7708 17.4896 16.7708C17.4896 16.7708 14.5173 16.7708 14.5173 16.7708C14.5874 16.6827 14.6617 16.5997 14.7288 16.5079C15.8978 14.9069 16.638 12.7447 16.7699 10.3414C16.7706 10.3283 16.7709 10.3152 16.7708 10.3021C16.7708 7.93287 15.6517 6.4592 14.5425 5.69665C13.4334 4.93411 12.3077 4.79728 12.3077 4.79728C12.2841 4.79423 12.2603 4.79236 12.2365 4.79167C12.0545 4.78728 11.8775 4.85218 11.7415 4.97323C10.851 5.7647 9.27964 6.25022 7.93526 6.47904C6.59089 6.70787 5.51042 6.70833 5.51042 6.70833C5.25121 6.70467 5.01011 6.84085 4.87944 7.06474C4.74876 7.28863 4.74876 7.56554 4.87944 7.78943C5.01011 8.01331 5.25121 8.1495 5.51042 8.14583C5.51042 8.14583 6.70599 8.14629 8.17672 7.89596C9.52962 7.66567 11.129 7.22208 12.3647 6.28064C12.6175 6.33268 13.112 6.45775 13.7283 6.88147C14.5324 7.43429 15.3238 8.35406 15.3305 10.2806C15.2094 12.4267 14.5385 14.3313 13.5683 15.66C13.2134 16.146 12.8242 16.5503 12.4106 16.871C12.3714 16.8939 12.3344 16.9206 12.3002 16.9505C11.6087 17.4559 10.8518 17.7292 10.0625 17.7292C9.29269 17.7292 8.55393 17.4675 7.8763 16.9861C7.82129 16.9299 7.75742 16.8831 7.68725 16.8476C7.28401 16.5303 6.90366 16.1351 6.55672 15.66C5.58365 14.3273 4.90895 12.4168 4.79073 10.2628C4.77679 10.0062 4.62701 9.77663 4.39784 9.66051C4.16866 9.54438 3.89493 9.55939 3.67982 9.69987C3.46471 9.84034 3.34092 10.0849 3.35511 10.3415C3.48701 12.7447 4.2272 14.9069 5.39624 16.5079C5.46328 16.5997 5.53763 16.6827 5.60775 16.7708C5.60775 16.7708 2.63542 16.7708 2.63542 16.7708C1.96543 16.7708 1.4375 16.2429 1.4375 15.5729C1.4375 15.5729 1.4375 13.1771 1.4375 13.1771C1.4375 8.73502 2.45865 5.79845 3.94938 3.9915C5.44012 2.18454 7.41298 1.4375 9.58333 1.4375C9.58333 1.4375 9.58333 1.4375 9.58333 1.4375ZM7.66667 10.5417C7.32429 10.5417 7.00791 10.7243 6.83673 11.0208C6.66553 11.3173 6.66553 11.6827 6.83673 11.9792C7.00792 12.2757 7.32429 12.4583 7.66667 12.4583C8.00905 12.4583 8.32542 12.2757 8.49661 11.9792C8.6678 11.6827 8.6678 11.3173 8.49661 11.0208C8.32542 10.7243 8.00904 10.5417 7.66667 10.5417C7.66667 10.5417 7.66667 10.5417 7.66667 10.5417ZM12.4583 10.5417C12.116 10.5417 11.7996 10.7243 11.6284 11.0208C11.4572 11.3173 11.4572 11.6827 11.6284 11.9792C11.7996 12.2757 12.116 12.4583 12.4583 12.4583C12.8007 12.4583 13.1171 12.2757 13.2883 11.9792C13.4595 11.6827 13.4595 11.3173 13.2883 11.0208C13.1171 10.7243 12.8007 10.5417 12.4583 10.5417C12.4583 10.5417 12.4583 10.5417 12.4583 10.5417Z" fill="#E44C60" transform="translate(1.438 1.917)" />
  </g>
</svg>