<svg width="52.924" xmlns="http://www.w3.org/2000/svg" height="64.994" fill="none"><path d="M49.979,31.161C51.410,37.884,50.938,45.140,47.840,51.276C44.742,57.412,39.099,62.684,32.242,63.164C23.934,63.746,15.671,59.557,10.406,53.105C5.140,46.653,2.187,37.925,2.891,29.627C3.482,22.658,5.765,15.678,10.317,10.367C14.869,5.057,21.876,1.635,28.833,2.356C33.526,2.843,37.868,5.248,41.120,8.666C43.954,11.646,45.814,15.443,47.025,19.373C48.237,23.305,49.123,27.139,49.979,31.161ZZ" style="fill: rgb(191, 57, 52);" class="fills"/><path d="M26.687,64.903C27.377,64.964,28.066,64.994,28.754,64.994C38.017,64.994,47.015,59.557,50.682,51.512C54.085,44.046,52.971,35.554,51.538,27.495C50.419,21.195,49.228,15.580,45.988,10.653C40.618,2.492,29.841,-1.713,20.364,0.656L20.363,0.656C16.529,1.615,12.913,3.637,9.905,6.505C5.833,10.389,2.819,16.367,0.947,24.271C-1.019,32.572,0.117,41.895,3.986,49.210C8.669,58.063,17.367,64.076,26.687,64.903ZZM5.290,25.300C6.959,18.250,9.549,13.012,12.986,9.734C15.435,7.399,18.361,5.757,21.447,4.985C29.145,3.061,37.899,6.476,42.260,13.105C44.225,16.091,45.459,19.869,44.474,23.427C43.866,25.623,42.227,28.391,40.005,29.258C37.660,30.173,35.677,30.977,33.954,32.977C33.396,33.625,32.918,34.310,32.455,34.973C31.966,35.674,31.503,36.336,30.975,36.921C30.489,37.461,29.203,38.702,27.767,38.573L27.531,41.240C27.685,41.254,27.836,41.260,27.986,41.260C30.304,41.260,32.081,39.691,32.963,38.714C33.603,38.004,34.135,37.242,34.650,36.505C36.962,33.193,40.847,31.710,44.400,34.422C46.778,36.238,47.922,39.324,48.022,42.314C48.107,44.863,47.761,48.671,46.302,50.840C44.999,52.777,43.279,54.689,41.442,56.137C37.425,59.303,32.183,60.908,27.082,60.455C19.371,59.771,11.855,54.537,7.932,47.121C4.553,40.737,3.566,32.579,5.290,25.300ZZ" style="fill: rgb(254, 129, 139);" class="fills"/><path d="M26.005,32.664C27.682,31.639,29.541,30.912,31.468,30.528C31.875,30.447,32.312,30.384,32.692,30.550C33.072,30.716,33.769,31.322,33.417,31.543C31.115,32.989,29.120,34.931,27.471,37.092C32.174,35.403,37.595,35.837,41.969,38.254C42.368,38.475,42.771,38.721,43.038,39.091C43.305,39.461,43.407,39.985,43.172,40.376C42.937,40.767,42.234,41.148,41.938,40.801C39.907,40.895,38.094,40.869,36.064,40.963C37.231,41.769,38.399,42.574,39.567,43.380C39.927,43.629,40.295,43.885,40.551,44.241C40.806,44.597,40.931,45.078,40.757,45.480C40.582,45.882,40.043,46.204,39.632,46.052C35.991,44.708,31.884,43.397,28.261,44.788C25.173,45.974,21.514,45.544,18.784,43.675C16.054,41.806,14.519,39.068,14.097,35.787C13.580,31.770,13.344,27.660,14.168,23.694C14.992,19.729,16.971,15.888,20.211,13.458C23.451,11.028,28.047,10.242,31.659,12.072C34.665,13.595,36.705,16.862,36.753,20.231C36.801,23.601,34.855,26.924,31.894,28.532C28.932,30.140,25.085,29.961,22.286,28.085C23.694,29.653,24.595,31.098,26.005,32.664ZZ" style="fill: rgb(255, 193, 198);" class="fills"/><path d="M24.215,29.341C21.118,28.461,18.710,25.544,18.432,22.336" style="fill: none; stroke-linejoin: round; stroke-miterlimit: 10;" class="fills"/><g class="strokes" style="fill: none; stroke-linejoin: round; stroke-miterlimit: 10;"><path d="M24.215,29.341C21.118,28.461,18.710,25.544,18.432,22.336" style="fill: none; stroke-width: 1; stroke: rgb(46, 17, 18); stroke-opacity: 1;" class="stroke-shape"/></g><path d="M28.113,36.774C26.854,37.302,25.596,37.830,24.337,38.358C22.959,37.378,20.905,36.205,19.528,35.225" style="fill: none; stroke-linejoin: round; stroke-miterlimit: 10;" class="fills"/><g class="strokes" style="fill: none; stroke-linejoin: round; stroke-miterlimit: 10;"><path d="M28.113,36.774C26.854,37.302,25.596,37.830,24.337,38.358C22.959,37.378,20.905,36.205,19.528,35.225" style="fill: none; stroke-width: 1; stroke: rgb(46, 17, 18); stroke-opacity: 1;" class="stroke-shape"/></g><path d="M37.094,41.143C33.371,40.354,29.298,41.438,26.461,43.975" style="fill: none; stroke-linejoin: round; stroke-miterlimit: 10;" class="fills"/><g class="strokes" style="fill: none; stroke-linejoin: round; stroke-miterlimit: 10;"><path d="M37.094,41.143C33.371,40.354,29.298,41.438,26.461,43.975" style="fill: none; stroke-width: 1; stroke: rgb(46, 17, 18); stroke-opacity: 1;" class="stroke-shape"/></g></svg>