<?xml version="1.0" encoding="utf-8"?>
<svg width="18" height="18" viewBox="0 0 18 18" fill="none" xmlns="http://www.w3.org/2000/svg">
  <g>
    <rect width="18" height="18" />
    <path id="Shape" d="M12.24 0C9.06469 0 6.48 2.58328 6.48 5.76C6.48 6.46594 6.61781 7.13672 6.85125 7.7625C6.85125 7.7625 0.10125 14.5012 0.10125 14.5012L0 14.6137L0 17.0662L0.10125 17.1787L0.82125 17.8988L0.93375 18L3.38625 18L3.49875 17.8988L4.57875 16.8188L4.68 16.7062L4.68 15.84L5.54625 15.84L5.65875 15.7387L6.73875 14.6587L6.84 14.5462L6.84 14.04L7.34625 14.04L7.45875 13.9387L8.17875 13.2188L8.28 13.1062L8.28 12.6L8.78625 12.6L8.89875 12.4987C8.89875 12.4987 10.2375 11.1488 10.2375 11.1488C10.8633 11.3822 11.5341 11.52 12.24 11.52C15.4153 11.52 18 8.93531 18 5.76C18 2.58328 15.4153 0 12.24 0C12.24 0 12.24 0 12.24 0ZM12.24 0.720032C15.0258 0.720032 17.28 2.97284 17.28 5.76003C17.28 8.54581 15.0258 10.8 12.24 10.8C11.5481 10.8 10.8928 10.6693 10.2937 10.4175C10.2895 10.4133 10.2867 10.4105 10.2825 10.4063C8.47264 9.64128 7.19998 7.84972 7.19998 5.76003C7.19998 2.97284 9.4542 0.720032 12.24 0.720032C12.24 0.720032 12.24 0.720032 12.24 0.720032ZM12.24 1.79999C11.2261 1.79999 10.2108 2.18671 9.43874 2.95874C9.43874 2.95874 9.17999 3.21749 9.17999 3.21749L9.43874 3.46499L14.535 8.56124L14.7825 8.81999C14.7825 8.81999 15.0412 8.56124 15.0412 8.56124C16.5853 7.01858 16.5853 4.50139 15.0412 2.95874C14.2692 2.18671 13.2539 1.79999 12.24 1.79999C12.24 1.79999 12.24 1.79999 12.24 1.79999ZM12.24 2.52002C13.0683 2.52002 13.9008 2.8308 14.535 3.46502C15.7134 4.64346 15.75 6.47861 14.7375 7.75127C14.7375 7.75127 10.2487 3.26252 10.2487 3.26252C10.8366 2.79564 11.5284 2.52002 12.24 2.52002C12.24 2.52002 12.24 2.52002 12.24 2.52002ZM7.155 8.47125C7.69359 9.47813 8.52188 10.3064 9.52875 10.845C9.52875 10.845 8.4825 11.88 8.4825 11.88L7.56 11.88L7.56 12.8025L7.0425 13.32L6.12 13.32L6.12 14.2425L5.2425 15.12L3.96 15.12L3.96 16.4025L3.0825 17.28L1.2375 17.28L0.877501 16.92C0.877501 16.92 6.84 10.9575 6.84 10.9575C6.96938 10.8464 7.00453 10.6608 6.92297 10.5117C6.84141 10.3613 6.66563 10.2895 6.5025 10.3388C6.43359 10.3542 6.37172 10.3894 6.3225 10.44C6.3225 10.44 0.720001 16.0538 0.720001 16.0538L0.720001 14.9175C0.720001 14.9175 7.155 8.47125 7.155 8.47125Z" fill="#E44C60" />
  </g>
</svg>