<svg width="24" xmlns="http://www.w3.org/2000/svg" height="24" fill="none"><g style="fill: rgb(0, 0, 0);"><path d="M11.540,22.351C11.570,22.369,11.594,22.382,11.540,22.351ZL11.638,22.407C11.861,22.529,12.138,22.528,12.361,22.408L12.390,22.391C12.406,22.382,12.430,22.369,12.460,22.351C12.521,22.316,12.607,22.265,12.716,22.198C12.932,22.065,13.239,21.868,13.605,21.609C14.335,21.093,15.310,20.327,16.287,19.327C18.231,17.337,20.250,14.346,20.250,10.500C20.250,5.944,16.556,2.250,12.000,2.250C7.444,2.250,3.750,5.944,3.750,10.500C3.750,14.346,5.769,17.337,7.713,19.327C8.690,20.327,9.665,21.093,10.395,21.609C10.761,21.868,11.068,22.065,11.284,22.198C11.393,22.265,11.479,22.316,11.540,22.351ZZM12.000,13.500C13.657,13.500,15.000,12.157,15.000,10.500C15.000,8.843,13.657,7.500,12.000,7.500C10.343,7.500,9.000,8.843,9.000,10.500C9.000,12.157,10.343,13.500,12.000,13.500ZZ" fill-rule="evenodd" clip-rule="evenodd" style="fill: rgb(15, 23, 42);" class="fills"/></g></svg>