<svg width="102" xmlns="http://www.w3.org/2000/svg" height="220" fill="none"><path d="M1.238,159.778C1.524,161.423,1.985,163.040,2.574,164.611C3.707,167.622,5.270,170.468,7.009,173.183C7.972,174.686,8.993,176.148,10.078,177.566C10.948,178.722,11.864,179.854,12.815,180.953C14.449,182.854,16.229,184.607,17.997,186.383C21.124,190.162,23.382,193.253,23.354,195.740C23.272,202.542,21.410,220.000,21.410,220.000L86.938,220.000C86.938,220.000,92.458,184.903,74.935,164.252C74.935,164.252,70.693,157.786,68.341,151.655C68.067,150.227,67.980,148.747,67.898,147.307C67.769,144.950,67.769,142.588,67.845,140.231C68.003,135.501,68.475,130.788,68.843,126.069C68.936,124.903,69.018,123.730,69.094,122.563C69.129,121.977,69.158,121.390,69.187,120.804C69.216,120.280,69.268,119.746,69.205,119.222C69.181,119.017,69.134,118.835,69.064,118.664C68.837,118.066,68.353,117.673,67.681,117.400C66.789,117.042,65.872,116.711,64.974,116.358C61.280,114.907,57.627,113.302,54.237,111.264C53.665,110.917,53.105,110.558,52.551,110.188C49.884,107.644,46.915,103.090,47.550,95.685C48.659,82.707,53.035,68.403,64.933,68.465C73.651,68.511,78.890,74.897,79.398,80.481L79.427,80.481C78.862,73.616,76.959,68.983,71.993,66.729C70.797,66.182,69.426,65.778,67.850,65.511C62.517,64.606,54.949,67.987,47.381,72.797C43.238,75.426,39.095,78.483,35.320,81.500C29.065,86.492,23.819,91.364,21.246,93.994C14.267,101.115,22.541,109.562,22.541,109.562C22.541,109.562,19.215,114.924,13.374,120.736C7.564,126.531,-3.750,142.190,1.238,159.778ZZ" style="fill: rgb(226, 121, 138);" class="fills"/><path d="M6.432,177.652C6.105,181.397,8.865,189.252,14.326,186.508C15.190,186.076,15.972,185.478,16.666,184.789C20.371,181.118,21.784,174.697,21.784,174.697C21.784,174.697,55.610,158.668,67.869,150.346C70.074,148.849,71.580,147.597,72.070,146.738C74.300,142.798,77.083,121.083,78.570,104.155C79.218,96.841,79.621,90.420,79.638,86.714C79.650,84.466,79.591,82.388,79.428,80.482L79.398,80.482C78.891,74.898,73.651,68.511,64.934,68.466C53.036,68.403,48.659,82.707,47.551,95.685C46.763,104.827,51.472,109.619,54.325,111.657L53.905,135.450L17.571,165.624C17.571,165.624,9.775,169.227,6.495,171.390C5.988,171.720,5.591,172.022,5.346,172.267C3.508,174.117,6.432,177.652,6.432,177.652ZZ" style="fill: rgb(234, 187, 187);" class="fills"/><path d="M26.959,44.519C27.986,45.009,29.346,45.595,30.326,45.811C30.326,45.811,32.800,57.600,39.493,58.470C42.281,58.835,45.147,57.150,47.550,55.067C50.918,52.146,53.362,48.424,53.362,48.424C53.362,48.424,52.785,54.697,47.492,60.936L47.381,72.798C54.949,67.988,62.518,64.607,67.851,65.512C69.426,65.779,70.797,66.184,71.994,66.730C71.358,64.294,69.000,56.803,63.201,53.382C56.228,49.267,54.501,38.770,54.501,38.770C60.295,37.467,61.917,27.380,57.902,25.479C53.888,23.578,51.659,27.380,51.659,27.380C41.967,26.031,33.815,13.059,33.815,13.059C33.815,13.059,31.848,14.858,30.214,18.188C28.476,21.717,27.110,26.971,28.866,33.630L25.995,42.305C25.711,43.176,26.119,44.121,26.959,44.519ZZ" style="fill: rgb(234, 187, 187);" class="fills"/><path d="M31.972,25.747C31.942,25.849,31.925,25.946,31.925,26.048C31.925,26.498,32.222,26.913,32.683,27.056L36.913,28.319C37.479,28.490,38.081,28.177,38.255,27.625C38.285,27.523,38.302,27.426,38.302,27.324C38.302,26.874,38.005,26.459,37.544,26.316L33.313,25.053C32.753,24.882,32.147,25.195,31.972,25.747ZZ" style="fill: rgb(14, 33, 40);" class="fills"/><path d="M33.611,29.395C32.631,29.395,31.831,30.385,31.831,31.610C31.831,32.834,32.631,33.824,33.611,33.824C34.598,33.824,35.397,32.834,35.397,31.610C35.397,30.386,34.598,29.395,33.611,29.395ZZ" style="fill: rgb(14, 33, 40);" class="fills"/><path d="M27.006,1.293C25.425,3.013,21.994,16.229,30.215,18.187C31.850,14.857,33.815,13.059,33.815,13.059C33.815,13.059,41.967,26.031,51.659,27.380C51.659,27.380,53.888,23.577,57.903,25.479C61.917,27.380,60.295,37.466,54.501,38.770C54.501,38.770,56.229,49.266,63.201,53.381C69.001,56.802,71.359,64.293,71.995,66.729C76.960,68.983,78.862,73.617,79.429,80.482C79.592,82.388,79.650,84.466,79.639,86.714C79.621,90.420,79.219,96.841,78.571,104.155C82.113,103.324,101.328,98.013,99.268,81.335C96.998,62.978,82.399,57.206,82.236,41.302C82.072,25.398,83.210,12.187,70.881,11.709C70.881,11.709,65.810,-1.264,49.040,1.742C32.275,4.749,28.588,-0.425,27.006,1.293ZZ" style="fill: rgb(14, 33, 40);" class="fills"/><path d="M34.948,46.506C33.349,47.166,32.450,48.623,32.946,49.756C33.436,50.889,35.134,51.265,36.733,50.604C38.338,49.938,39.237,48.481,38.740,47.354C38.250,46.221,36.552,45.840,34.948,46.506ZZ" style="fill: rgb(226, 121, 138);" class="fills"/><path d="M47.493,60.936L47.551,55.067C45.147,57.150,42.282,58.835,39.493,58.471C32.929,64.966,34.668,77.841,35.321,81.501C39.096,78.484,43.240,75.428,47.382,72.798L47.493,60.936ZZ" style="fill: rgb(14, 33, 40);" class="fills"/><path d="M44.966,35.367C42.212,35.367,39.983,37.547,39.983,40.233C39.983,42.920,42.212,45.100,44.966,45.100C47.721,45.100,49.955,42.920,49.955,40.233C49.955,37.546,47.721,35.367,44.966,35.367ZZ" style="fill: rgb(234, 170, 167);" class="fills"/><path d="M47.551,55.067L47.493,60.935C52.785,54.697,53.363,48.423,53.363,48.423C53.363,48.423,50.918,52.147,47.551,55.067ZZ" style="fill: rgb(14, 33, 40);" class="fills"/><path d="M68.718,12.263C71.454,11.138,74.619,11.223,77.349,12.327C80.275,13.512,82.393,15.798,83.538,18.658C84.882,22.015,84.862,25.684,84.662,29.226C84.551,31.200,84.390,33.174,84.397,35.152C84.403,37.126,84.584,39.098,84.939,41.040C85.624,44.790,86.974,48.351,88.782,51.720C90.558,55.031,92.680,58.147,94.707,61.313C98.520,67.272,102.179,73.826,101.993,81.060C101.910,84.303,101.048,87.581,99.154,90.279C97.272,92.961,94.510,94.944,91.499,96.279C90.762,96.606,90.007,96.897,89.242,97.156C88.886,97.276,88.734,96.727,89.087,96.607C92.205,95.550,95.176,93.911,97.414,91.511C99.649,89.116,100.911,86.029,101.285,82.830C102.105,75.798,98.933,69.217,95.306,63.351C91.481,57.167,87.030,51.258,85.064,44.188C84.066,40.595,83.702,36.891,83.853,33.176C84.004,29.485,84.505,25.750,83.875,22.076C83.341,18.960,81.969,15.881,79.261,14.003C76.883,12.352,73.792,11.662,70.918,12.202C70.215,12.335,69.532,12.540,68.872,12.811C68.527,12.954,68.376,12.403,68.718,12.263ZZ" style="fill: rgb(14, 33, 40);" class="fills"/><path d="M32.708,71.279C32.904,68.019,34.098,64.851,36.084,62.224C37.175,60.780,38.483,59.515,39.974,58.465C40.279,58.250,40.571,58.744,40.269,58.957C37.701,60.766,35.670,63.299,34.482,66.163C33.231,69.179,32.941,72.518,33.631,75.701C34.031,77.551,34.749,79.319,35.758,80.933C35.954,81.246,35.450,81.533,35.254,81.220C33.400,78.257,32.500,74.746,32.708,71.279ZZ" style="fill: rgb(14, 33, 40);" class="fills"/><path d="M65.396,0.048C68.899,2.323,71.513,5.777,72.699,9.717C72.805,10.069,72.242,10.219,72.137,9.868C70.994,6.074,68.477,2.731,65.102,0.540C64.790,0.338,65.082,-0.155,65.396,0.048ZZ" style="fill: rgb(14, 33, 40);" class="fills"/><path d="M65.335,3.026C67.363,4.263,69.056,5.982,70.237,8.011C70.423,8.330,69.919,8.617,69.733,8.298C68.601,6.353,66.985,4.704,65.041,3.518C64.723,3.324,65.016,2.831,65.335,3.026ZZ" style="fill: rgb(14, 33, 40);" class="fills"/><path d="M23.364,3.878C23.549,2.965,23.867,2.037,24.458,1.294C25.093,0.494,26.020,0.053,27.064,0.088C28.330,0.130,29.575,0.655,30.781,0.990C33.743,1.813,36.757,2.449,39.802,2.903C40.172,2.958,40.015,3.506,39.647,3.452C37.160,3.081,34.693,2.589,32.258,1.972C31.037,1.663,29.832,1.303,28.622,0.955C27.553,0.647,26.345,0.424,25.399,1.155C24.680,1.712,24.297,2.603,24.065,3.445C23.779,4.481,23.672,5.577,23.648,6.648C23.599,8.869,24.031,11.126,25.125,13.090C26.208,15.033,27.885,16.638,29.980,17.513C30.324,17.656,30.028,18.147,29.685,18.004C25.413,16.222,23.184,11.771,23.066,7.411C23.034,6.232,23.129,5.036,23.364,3.878ZZ" style="fill: rgb(14, 33, 40);" class="fills"/><path d="M33.639,12.347C33.676,11.987,34.260,11.982,34.222,12.347C34.049,14.038,34.632,15.661,35.456,17.125C36.211,18.466,37.142,19.715,38.192,20.849C40.307,23.132,42.975,25.025,45.934,26.122C47.731,26.789,49.638,27.138,51.562,26.982C51.936,26.951,51.934,27.521,51.562,27.551C48.059,27.835,44.611,26.498,41.751,24.612C39.100,22.863,36.837,20.543,35.209,17.852C34.207,16.194,33.439,14.304,33.639,12.347ZZ" style="fill: rgb(14, 33, 40);" class="fills"/><path d="M54.018,32.093C54.079,31.254,54.216,30.419,54.405,29.598C54.562,28.918,54.786,28.156,55.319,27.657C55.891,27.121,56.714,27.150,57.324,27.613C57.958,28.096,58.139,28.901,58.169,29.647C58.183,30.013,57.600,30.012,57.585,29.647C57.567,29.164,57.488,28.649,57.171,28.260C56.861,27.880,56.286,27.661,55.845,27.964C55.409,28.264,55.207,28.859,55.072,29.336C54.924,29.863,54.820,30.405,54.735,30.944C54.548,32.126,54.495,33.346,54.683,34.531C54.748,34.940,54.808,35.513,55.137,35.815C55.577,36.218,56.107,35.699,56.321,35.321C56.617,34.797,56.704,34.144,56.629,33.555C56.607,33.390,56.553,32.821,56.339,32.766C56.320,32.761,56.317,32.759,56.308,32.756C56.311,32.762,56.309,32.769,56.293,32.779C56.251,32.804,56.210,32.973,56.190,33.021C56.126,33.174,56.062,33.328,55.998,33.481C55.857,33.815,55.293,33.669,55.435,33.329C55.623,32.881,55.846,31.904,56.556,32.226C57.171,32.506,57.247,33.438,57.236,34.008C57.222,34.699,57.025,35.449,56.557,35.982C56.155,36.439,55.499,36.715,54.927,36.374C54.352,36.032,54.215,35.276,54.119,34.682C53.981,33.826,53.954,32.958,54.018,32.093ZZ" style="fill: rgb(14, 33, 40);" class="fills"/><path d="M54.049,99.417C54.025,99.051,54.609,99.052,54.633,99.417C54.891,103.316,54.874,107.227,54.583,111.124C54.556,111.487,53.972,111.490,54.000,111.124C54.291,107.228,54.307,103.316,54.049,99.417ZZ" style="fill: rgb(14, 33, 40);" class="fills"/><path d="M6.591,176.757C6.596,176.757,6.616,176.756,6.591,176.757ZC6.634,176.754,6.639,176.753,6.591,176.757ZC6.647,176.750,6.648,176.750,6.591,176.757ZC6.660,176.742,6.716,176.705,6.688,176.726C6.659,176.746,6.718,176.699,6.718,176.700C6.731,176.688,6.743,176.676,6.755,176.664C6.783,176.637,6.809,176.609,6.835,176.581C6.966,176.435,7.099,176.291,7.235,176.151C7.505,175.872,7.787,175.603,8.079,175.346C8.192,175.245,8.381,175.228,8.491,175.346C8.594,175.454,8.612,175.641,8.491,175.748C8.176,176.026,7.873,176.317,7.583,176.620C7.445,176.764,7.317,176.917,7.177,177.057C7.023,177.212,6.822,177.340,6.592,177.327C6.440,177.318,6.293,177.202,6.300,177.042C6.306,176.895,6.428,176.748,6.591,176.757ZZ" style="fill: rgb(14, 33, 40);" class="fills"/><path d="M9.209,183.450C9.229,183.303,9.328,183.158,9.500,183.165C9.641,183.171,9.814,183.292,9.792,183.450C9.717,183.994,9.643,184.539,9.568,185.084C9.548,185.231,9.449,185.376,9.277,185.369C9.136,185.362,8.963,185.242,8.985,185.084C9.060,184.539,9.134,183.995,9.209,183.450ZZ" style="fill: rgb(14, 33, 40);" class="fills"/><path d="M7.142,180.296C7.287,180.067,7.432,179.840,7.577,179.611C7.616,179.550,7.679,179.500,7.752,179.481C7.822,179.462,7.914,179.470,7.976,179.509C8.106,179.591,8.167,179.763,8.081,179.899L7.646,180.583C7.606,180.645,7.544,180.694,7.471,180.714C7.401,180.733,7.308,180.724,7.246,180.685C7.117,180.603,7.056,180.431,7.142,180.296ZZ" style="fill: rgb(14, 33, 40);" class="fills"/><path d="M27.033,107.405C29.758,109.658,32.483,111.911,35.208,114.164C35.495,114.400,35.080,114.802,34.795,114.566C32.071,112.313,29.346,110.060,26.621,107.807C26.334,107.570,26.748,107.169,27.033,107.405ZZ" style="fill: rgb(14, 33, 40);" class="fills"/><path d="M25.716,110.722C27.884,112.101,30.051,113.479,32.219,114.857C32.532,115.056,32.240,115.549,31.925,115.349C29.757,113.970,27.589,112.592,25.422,111.214C25.108,111.014,25.401,110.521,25.716,110.722ZZ" style="fill: rgb(14, 33, 40);" class="fills"/><path d="M46.435,183.107C50.066,179.042,53.616,174.908,57.081,170.708C58.058,169.524,59.029,168.333,59.993,167.138C60.225,166.851,60.635,167.256,60.405,167.541C56.987,171.778,53.485,175.951,49.901,180.054C48.889,181.211,47.872,182.363,46.848,183.510C46.601,183.786,46.190,183.383,46.435,183.107ZZ" style="fill: rgb(14, 33, 40);" class="fills"/><path d="M51.406,181.459C54.342,179.321,57.207,177.092,59.997,174.777C60.282,174.540,60.696,174.941,60.409,175.179C57.581,177.526,54.676,179.783,51.701,181.950C51.399,182.169,51.108,181.676,51.406,181.459ZZ" style="fill: rgb(14, 33, 40);" class="fills"/><path d="M33.366,49.583C35.717,48.982,37.828,47.601,39.269,45.688C39.489,45.396,39.996,45.680,39.773,45.976C38.240,48.010,36.028,49.491,33.521,50.132C33.158,50.224,33.002,49.676,33.366,49.583ZZ" style="fill: rgb(14, 33, 40);" class="fills"/><path d="M30.713,55.541C30.747,55.442,30.797,55.361,30.868,55.284C30.895,55.255,30.926,55.231,30.958,55.207C30.992,55.182,31.024,55.158,31.062,55.140C31.162,55.092,31.255,55.066,31.366,55.059C31.477,55.053,31.583,55.084,31.682,55.129C31.892,55.225,32.025,55.458,32.001,55.683C31.989,55.791,31.959,55.896,31.893,55.987C31.866,56.051,31.830,56.111,31.783,56.162C31.717,56.236,31.621,56.288,31.526,56.315C31.426,56.344,31.328,56.340,31.227,56.324C31.081,56.301,30.927,56.215,30.835,56.101C30.774,56.025,30.719,55.943,30.701,55.846C30.681,55.745,30.679,55.640,30.713,55.541ZZ" style="fill: rgb(14, 33, 40);" class="fills"/></svg>