<svg width="412" xmlns="http://www.w3.org/2000/svg" height="546" id="screenshot-a54b1960-a4ea-8001-8005-b875e9c34d5a" fill="none" version="1.1"><g id="shape-a54b1960-a4ea-8001-8005-b875e9c34d5a" style="fill: rgb(0, 0, 0);"><defs style="fill: rgb(0, 0, 0);" id="shape-a54b1960-a4ea-8001-8005-b875e9c4cda3"><style id="shape-a54b1960-a4ea-8001-8005-b875e9c4cda4">#shape-a54b1960-a4ea-8001-8005-b875e9c34d5a{ .cls-1 { fill: #ec7c6b; } .cls-2 { fill: #fd9985; } .cls-3 { fill: #fcb389; } .cls-4 { fill: #bc463a; } .cls-5 { fill: #697f8d; } .cls-6 { fill: #d05a4c; } .cls-7 { fill: #da6352; } .cls-8 { fill: #83494a; } .cls-9 { fill: #f0764b; } .cls-10 { fill: #fbfbf5; } .cls-11 { fill: #fdafa0; } .cls-12 { fill: #395668; } .cls-13 { fill: #3c3e4c; } }</style></defs><g id="shape-a54b1960-a4ea-8001-8005-b875e9c52aeb"><g class="fills" id="fills-a54b1960-a4ea-8001-8005-b875e9c52aeb"><path d="M0.000,426.319C0.000,369.430,88.166,377.327,194.203,377.327C300.239,377.327,396.533,374.492,410.082,429.912C428.033,503.341,316.972,546.000,202.480,546.000C96.444,546.001,0.000,483.206,0.000,426.319ZZ" class="cls-11"/></g></g><g id="shape-a54b1960-a4ea-8001-8005-b875e9c52aec"><g class="fills" id="fills-a54b1960-a4ea-8001-8005-b875e9c52aec"><path d="M190.389,112.340C189.707,118.418,182.930,119.822,178.181,118.025C173.017,116.074,169.471,112.374,167.541,106.925C166.489,103.938,166.657,101.495,168.049,99.599C169.157,98.084,170.763,97.159,172.864,96.822C176.196,96.285,178.816,97.595,181.149,99.899C181.834,100.572,182.588,101.164,183.410,101.671C186.933,103.843,190.922,107.636,190.389,112.340ZZ" class="cls-2"/></g></g><g id="shape-a54b1960-a4ea-8001-8005-b875e9c5fea2"><g class="fills" id="fills-a54b1960-a4ea-8001-8005-b875e9c5fea2"><path d="M115.382,165.544C119.216,168.807,121.070,170.823,124.126,174.692C124.620,175.321,125.925,177.093,128.038,180.009C129.533,182.077,131.144,184.088,132.871,186.044C134.127,188.161,135.616,190.189,137.338,192.128C139.523,194.578,141.768,197.124,144.073,199.766C149.899,206.438,156.283,212.462,163.225,217.837C167.297,220.986,171.838,223.824,176.851,226.354C178.358,227.115,179.885,227.953,181.433,228.869C183.885,230.321,186.746,231.241,190.016,231.627C192.301,231.901,194.430,231.779,196.403,231.258C198.609,230.680,200.169,229.403,201.087,227.427C201.888,225.705,201.729,223.968,200.609,222.216C200.684,219.375,200.066,216.586,198.754,213.848C196.976,210.137,195.042,206.852,192.953,203.995C190.734,200.975,189.053,198.173,187.031,195.352C186.820,195.057,186.680,194.792,186.613,194.559C186.349,193.647,186.616,193.409,187.414,193.841C187.469,193.870,187.668,193.989,188.012,194.197L189.932,196.194C191.579,198.569,193.365,200.866,195.292,203.083C195.412,203.225,195.622,203.236,195.759,203.107C195.787,203.080,195.811,203.049,195.829,203.015C195.833,203.006,195.838,202.927,195.841,202.778C196.583,203.920,197.289,205.081,198.252,206.036C201.254,209.006,204.137,212.220,207.176,215.184C213.089,220.958,218.185,226.456,222.465,231.676C228.966,239.620,233.243,248.581,232.256,259.420L231.562,262.077C231.606,261.853,231.612,261.711,231.580,261.653C231.483,261.485,231.272,261.432,231.108,261.535C231.077,261.556,231.048,261.581,231.023,261.610C230.003,262.875,228.870,263.859,227.626,264.562C223.830,266.720,219.855,268.487,215.700,269.859C213.702,270.516,211.884,270.979,210.244,271.244C208.386,271.548,206.556,271.833,204.753,272.099C204.547,272.128,204.356,271.981,204.327,271.769C204.319,271.705,204.325,271.641,204.347,271.581C205.460,268.332,206.111,264.941,206.303,261.410C206.453,258.689,205.813,255.912,205.580,253.154C205.570,253.043,205.480,252.957,205.371,252.954L205.216,252.954C205.168,252.954,205.142,252.980,205.138,253.029C205.007,256.049,204.480,259.437,202.943,261.803C201.538,263.961,199.822,265.759,197.793,267.194C193.805,270.015,189.253,272.284,184.138,274.002C184.063,274.026,184.001,274.086,183.970,274.164C183.927,274.285,183.853,274.333,183.749,274.307C183.606,274.274,183.462,274.281,183.319,274.326C181.541,274.863,179.610,275.401,177.528,275.942C167.432,278.569,155.558,279.486,145.863,275.718C129.660,269.428,124.128,253.104,123.631,236.474C123.613,235.911,123.655,235.238,123.907,234.726C126.873,228.649,129.170,222.484,129.446,215.720C129.729,208.743,128.633,201.789,126.156,194.859C125.210,192.225,123.931,189.761,122.771,187.202C121.961,185.422,120.950,183.691,119.738,182.011C116.967,178.163,114.387,175.120,111.998,172.882C110.479,171.464,108.366,170.539,105.658,170.111L115.382,165.544ZZ" class="cls-2"/></g></g><g id="shape-a54b1960-a4ea-8001-8005-b875e9c61b0e"><g class="fills" id="fills-a54b1960-a4ea-8001-8005-b875e9c61b0e"><path d="M266.386,342.882C266.214,342.911,266.135,342.803,266.147,342.558C266.147,342.512,266.125,342.482,266.082,342.469C266.021,342.449,265.974,342.459,265.937,342.501C265.853,342.608,265.816,342.731,265.824,342.869C266.096,347.454,265.429,351.839,263.827,356.023C261.422,362.289,255.656,368.174,250.047,371.736C246.489,373.994,242.733,375.815,238.778,377.197C229.824,380.322,218.788,379.761,209.739,377.327C199.160,374.477,188.626,369.731,178.140,363.086C173.710,360.283,169.456,357.510,165.376,354.769C160.934,351.780,156.121,348.081,150.936,343.668C147.073,340.378,142.635,335.500,145.159,329.827C145.865,328.238,146.609,326.975,147.390,326.039C150.388,322.448,154.094,319.043,158.509,315.823C163.812,311.959,169.326,308.464,175.053,305.339C178.016,303.805,180.997,302.307,183.995,300.847C185.538,300.093,187.174,299.535,188.905,299.168C192.555,298.399,196.250,297.603,199.996,296.778C202.365,296.254,204.954,295.747,207.764,295.257C211.461,294.616,215.172,293.503,218.896,291.918C220.432,291.264,221.889,290.764,223.269,290.420C223.505,290.361,223.738,290.361,223.970,290.420L225.859,290.912C226.150,290.988,226.238,290.879,226.123,290.588C226.091,290.497,226.030,290.407,225.943,290.320C226.295,290.287,226.615,290.404,226.907,290.675C227.058,290.817,227.222,290.834,227.397,290.726C227.612,290.597,227.810,290.335,227.989,289.940C228.926,291.683,229.648,292.742,230.154,293.115C234.828,296.561,238.793,299.759,242.052,302.713C247.639,307.780,252.684,313.715,257.190,320.516C260.428,326.078,262.351,329.827,262.955,331.767C263.466,333.411,264.097,335.114,264.851,336.877L266.386,342.882ZZ" class="cls-2"/></g></g><g id="shape-a54b1960-a4ea-8001-8005-b875e9c681cc"><g class="fills" id="fills-a54b1960-a4ea-8001-8005-b875e9c681cc"><path d="M174.375,398.550C175.057,398.541,175.612,398.780,176.038,399.268C167.784,401.244,159.679,403.737,151.724,406.750C143.207,409.973,134.700,413.231,126.202,416.522C118.071,419.667,110.065,422.059,102.181,423.699C100.202,424.106,95.661,424.980,88.555,426.320L70.749,428.385C72.403,427.224,73.810,426.534,74.965,426.313C76.764,425.964,78.595,425.537,80.462,425.035C80.558,425.009,80.601,424.945,80.593,424.841C80.589,424.779,80.605,424.722,80.640,424.672C80.832,424.410,80.771,424.275,80.461,424.267C80.401,424.263,80.349,424.229,80.305,424.167C80.230,424.047,80.262,423.990,80.401,423.999C81.258,424.061,81.978,423.849,82.560,423.362C82.698,423.243,82.863,423.162,83.039,423.125C85.319,422.692,87.612,422.291,89.918,421.921C92.582,421.493,98.398,420.057,107.365,417.615C110.613,416.728,113.927,416.142,117.133,415.056C121.930,413.440,126.997,412.154,131.949,410.551C137.565,408.735,143.085,406.775,148.839,405.321C151.343,404.689,153.849,404.066,156.358,403.455C156.390,403.446,157.263,403.270,158.978,402.924C160.234,402.675,161.453,402.267,162.633,401.701C163.758,401.158,165.043,401.226,166.263,400.983C166.422,400.954,166.564,400.886,166.688,400.777C166.756,400.719,166.831,400.676,166.915,400.645C167.274,400.525,167.265,400.479,166.890,400.509C162.855,400.820,160.279,401.156,159.163,401.513C155.981,402.536,152.881,403.328,149.862,403.890C146.645,404.493,143.485,405.192,140.382,405.987C128.939,408.920,117.934,411.893,107.372,414.905C104.947,415.595,102.513,416.222,100.069,416.783C96.803,417.525,93.591,418.530,90.319,419.148C81.994,420.724,73.625,422.281,65.216,423.815C65.096,423.836,65.023,423.786,64.995,423.666L64.958,423.504C64.955,423.478,64.964,423.462,64.989,423.454C68.462,422.397,71.907,421.237,75.324,419.972C78.291,418.875,81.336,418.455,84.332,417.539C86.705,416.811,89.223,416.160,91.886,415.585C97.967,414.271,103.799,413.026,109.381,411.854C112.229,411.255,115.154,410.967,118.024,410.668C118.586,410.614,119.137,410.500,119.675,410.325C119.786,410.292,119.860,410.218,119.895,410.101C119.915,410.043,119.904,409.985,119.859,409.926C119.828,409.888,119.787,409.871,119.739,409.871C116.693,409.745,114.779,409.710,113.997,409.764C106.999,410.259,100.020,410.771,93.062,411.299C92.161,411.366,90.464,411.564,87.972,411.892C84.018,412.409,80.017,412.609,76.147,413.208C75.418,413.321,75.400,413.246,76.094,412.984C79.384,411.718,82.775,410.195,86.011,409.121C93.855,406.525,101.897,404.907,110.140,404.267L174.375,398.550ZZ" class="cls-2"/></g></g><g id="shape-a54b1960-a4ea-8001-8005-b875e9c74689"><g class="fills" id="fills-a54b1960-a4ea-8001-8005-b875e9c74689"><path d="M195.173,397.589C208.598,397.734,222.092,398.313,235.654,399.323C235.685,399.327,237.316,399.518,240.546,399.897C243.285,400.217,245.863,400.130,248.279,399.635C248.415,400.034,248.900,400.120,249.733,399.891C249.777,399.882,249.777,399.878,249.733,399.878C249.458,399.882,249.169,399.953,248.866,400.091C248.590,400.211,248.589,400.336,248.860,400.465C249.709,400.871,251.503,400.640,252.461,400.621C253.362,400.605,254.271,400.688,255.188,400.871C256.519,401.137,257.875,401.181,259.255,401.002C259.733,400.947,260.056,400.597,260.397,400.265C260.226,400.507,260.118,400.712,260.074,400.883C260.022,401.091,260.096,401.220,260.295,401.271C260.850,401.404,261.390,401.542,261.916,401.682C262.382,401.808,262.879,401.882,263.406,401.906C265.260,401.990,267.209,402.153,269.255,402.399C288.459,404.707,304.657,407.195,317.847,409.862C326.105,411.531,333.279,413.726,339.368,416.451C345.834,419.347,352.695,425.231,355.924,431.939C360.488,441.424,357.640,453.330,352.897,462.185C347.652,471.981,341.222,481.186,334.912,490.484C334.170,491.578,332.316,494.034,329.349,497.853C329.154,498.103,328.789,498.520,328.255,499.108C327.198,500.269,327.153,500.884,328.118,500.955C322.730,504.171,317.307,507.310,311.848,510.372C304.172,514.682,296.314,518.605,288.276,522.141C280.963,525.352,272.968,528.571,264.291,531.795C262.521,532.452,261.046,532.918,259.865,533.192C259.598,532.244,259.638,531.422,259.985,530.727C268.683,513.301,278.885,497.107,290.592,482.147C296.864,474.127,303.635,465.794,310.904,457.149C311.694,456.213,313.033,454.142,313.112,452.819C313.183,451.540,311.622,450.772,310.642,450.547C305.492,449.399,298.978,452.369,295.144,455.676C294.421,456.301,293.655,456.494,292.800,456.675C287.337,457.857,280.578,459.174,272.523,460.626C266.810,461.655,261.272,462.305,255.548,463.115C233.077,466.292,210.000,467.215,185.603,466.516C164.255,465.911,144.798,464.226,125.909,459.296C117.990,457.231,109.640,453.867,103.348,448.895C96.239,443.279,91.307,435.753,88.556,426.319C95.662,424.979,100.204,424.105,102.182,423.697C110.065,422.059,118.073,419.666,126.203,416.521C134.700,413.230,143.208,409.973,151.725,406.748C159.681,403.736,167.785,401.243,176.039,399.266L195.173,397.589ZZ" class="cls-5"/></g></g><g id="shape-a54b1960-a4ea-8001-8005-b875e9c7468a"><g class="fills" id="fills-a54b1960-a4ea-8001-8005-b875e9c7468a"><path d="M118.170,164.065C122.933,170.493,129.338,178.971,132.872,186.043C126.352,178.532,122.674,171.327,115.383,165.544L118.170,164.065ZZ" class="cls-6"/></g></g><g id="shape-a54b1960-a4ea-8001-8005-b875e9c7c32c"><g class="fills" id="fills-a54b1960-a4ea-8001-8005-b875e9c7c32c"><path d="M105.657,170.111C120.783,173.825,130.473,200.804,129.445,215.720C129.169,222.485,126.873,228.650,123.905,234.728C121.784,268.344,147.713,285.161,177.528,275.942C189.022,272.639,205.048,267.912,205.138,253.030C207.335,257.962,206.195,266.052,204.349,271.581C204.713,272.913,208.882,271.106,210.246,271.246C217.652,269.809,225.788,266.403,231.511,261.567C230.361,269.801,223.457,274.951,216.634,279.108C203.615,273.013,188.394,272.349,176.733,281.703C195.213,267.681,147.531,303.466,121.585,270.938C121.163,270.386,120.694,270.567,120.382,271.125C119.155,273.762,123.583,277.408,124.897,279.756C131.266,287.190,142.551,292.804,152.735,290.345C157.454,289.107,162.334,287.959,166.935,286.888C167.019,286.967,167.043,287.031,167.007,287.082C166.524,287.875,168.120,287.201,168.496,287.344C167.813,288.524,161.095,292.139,163.519,293.821C169.881,290.375,176.026,285.801,182.510,281.946C183.317,281.701,186.792,278.856,186.716,280.436C178.650,285.487,170.827,290.965,162.987,296.280C162.210,297.047,159.583,297.463,160.510,298.955C160.728,299.259,161.886,299.050,162.186,299.106C162.669,299.065,164.047,300.024,164.471,300.254C164.839,300.658,163.925,301.142,164.268,301.776C165.912,303.389,179.102,292.499,172.947,295.910C172.341,295.901,172.084,295.721,172.175,295.367C178.659,291.990,185.034,286.173,191.811,284.477C187.627,287.488,171.778,295.773,172.665,301.171C172.733,301.820,173.056,302.018,173.635,301.763C182.050,299.254,189.495,291.549,197.321,289.532C195.120,292.692,187.990,293.165,188.551,297.822C196.543,295.222,204.985,292.365,214.044,289.714C220.786,287.718,218.905,283.210,225.941,290.320C226.169,290.531,226.337,291.067,225.857,290.912C221.407,289.240,213.353,295.102,207.763,295.254C196.235,297.429,185.178,299.117,175.051,305.339C171.351,299.581,144.699,309.819,137.925,311.585C133.162,313.205,128.357,316.948,123.234,317.029C122.945,317.388,118.912,314.856,118.563,314.900C116.543,296.910,118.700,277.865,118.472,259.550C119.045,243.083,119.517,231.080,122.810,216.768C122.993,216.011,123.101,216.021,123.132,216.800C123.288,220.494,123.203,224.307,122.875,228.238C122.978,228.885,121.329,234.658,122.827,231.601C132.940,211.432,124.585,183.623,106.438,171.716C105.780,171.217,105.126,170.932,104.477,170.861L105.657,170.111ZZ" class="cls-6"/></g></g><g id="shape-a54b1960-a4ea-8001-8005-b875e9c7c32d"><g class="fills" id="fills-a54b1960-a4ea-8001-8005-b875e9c7c32d"><path d="M178.850,225.281C177.125,222.680,175.336,219.957,173.874,217.262C173.944,217.211,174.032,217.031,174.125,217.155C174.125,217.155,182.265,226.890,182.265,226.890C183.002,228.470,179.019,226.157,178.850,225.281ZZ" class="cls-6"/></g></g><g id="shape-a54b1960-a4ea-8001-8005-b875e9c836e0"><g class="fills" id="fills-a54b1960-a4ea-8001-8005-b875e9c836e0"><path d="M93.814,359.400C120.835,378.387,148.416,386.542,174.795,398.370C174.470,398.797,110.562,404.089,110.142,404.261C108.117,404.625,108.961,399.446,107.517,397.796C103.880,389.285,97.006,381.704,94.568,372.212C93.514,366.687,90.299,360.460,93.814,359.400ZZ" class="cls-6"/></g></g><g id="shape-a54b1960-a4ea-8001-8005-b875e9c836e1"><g class="fills" id="fills-a54b1960-a4ea-8001-8005-b875e9c836e1"><path d="M271.572,374.862C271.139,385.324,261.150,391.389,251.978,393.101C251.295,393.238,251.186,393.037,251.649,392.496C259.889,387.672,267.470,385.880,271.231,375.305C271.188,375.056,271.300,374.907,271.572,374.862ZZ" class="cls-6"/></g></g><g id="shape-a54b1960-a4ea-8001-8005-b875e9c84eb0"><g class="fills" id="fills-a54b1960-a4ea-8001-8005-b875e9c84eb0"><path d="M270.047,385.732C277.364,386.315,284.490,387.117,291.424,388.140C315.936,391.748,340.848,397.238,364.522,405.557C371.687,408.078,379.571,411.635,385.074,417.301C391.851,424.277,393.334,433.400,392.246,443.559C392.118,444.844,391.769,445.795,391.200,446.410C388.532,449.297,385.858,452.174,383.178,455.041C366.654,472.696,348.301,488.001,328.120,500.955C327.155,500.884,327.201,500.269,328.257,499.108C328.791,498.522,329.156,498.104,329.352,497.853C332.318,494.034,334.173,491.578,334.914,490.484C341.224,481.186,347.654,471.982,352.900,462.185C357.643,453.330,360.490,441.424,355.927,431.939C352.697,425.231,345.836,419.347,339.371,416.451C333.282,413.726,326.108,411.529,317.850,409.862C304.660,407.195,288.462,404.707,269.258,402.399C267.213,402.153,265.262,401.989,263.408,401.906C262.881,401.881,262.385,401.806,261.919,401.682C261.392,401.540,260.852,401.404,260.297,401.271C260.098,401.221,260.024,401.092,260.076,400.883C260.120,400.712,260.228,400.507,260.399,400.265L261.780,399.323C261.944,399.211,262.087,399.071,262.211,398.906C262.482,398.540,262.956,398.052,263.635,397.446C266.350,395.008,268.113,391.769,268.923,387.730L270.047,385.732ZZ" class="cls-12"/></g></g><g id="shape-a54b1960-a4ea-8001-8005-b875e9c881b3"><g class="fills" id="fills-a54b1960-a4ea-8001-8005-b875e9c881b3"><path d="M88.556,426.319C91.307,435.754,96.239,443.279,103.348,448.895C109.641,453.868,117.990,457.231,125.909,459.296C144.798,464.226,164.255,465.911,185.603,466.516C210.000,467.215,233.077,466.292,255.548,463.115C261.272,462.304,266.811,461.655,272.523,460.626C280.578,459.174,287.337,457.857,292.800,456.675C293.655,456.494,294.421,456.301,295.144,455.676C298.978,452.369,305.492,449.399,310.642,450.547C311.622,450.771,313.184,451.540,313.112,452.819C313.034,454.142,311.694,456.213,310.904,457.149C303.634,465.793,296.864,474.126,290.592,482.147C278.885,497.107,268.683,513.301,259.985,530.727C259.638,531.422,259.598,532.244,259.865,533.192L242.729,538.234L242.521,538.228C242.323,538.218,242.171,538.041,242.182,537.831C242.186,537.769,242.203,537.708,242.234,537.653L261.524,504.862L266.400,497.162L281.215,474.997C281.941,473.916,281.698,473.568,280.486,473.955C273.565,476.158,266.860,478.130,259.598,479.728C252.864,481.213,246.188,482.729,239.705,483.859C226.167,486.231,212.392,488.083,198.380,489.419C192.399,489.986,185.682,489.637,179.647,490.086C178.754,490.153,178.208,490.537,178.009,491.241C176.603,491.054,175.204,490.674,173.803,490.704C169.569,490.788,165.336,490.893,161.105,491.022C156.308,491.171,148.325,490.954,137.155,490.367C134.332,490.417,131.527,490.231,128.740,489.805C125.461,489.306,123.804,489.054,123.763,489.051C121.068,488.688,118.215,488.267,115.205,487.784C105.347,486.199,95.891,483.491,87.260,478.755C81.095,475.369,75.873,470.817,71.595,465.102C70.347,463.434,69.036,461.426,67.665,459.080L66.648,456.889C63.279,449.335,61.135,441.327,60.218,432.865C60.090,431.683,60.128,430.700,60.332,429.913L70.751,428.385L88.556,426.319ZZ" class="cls-12"/></g></g><g id="shape-a54b1960-a4ea-8001-8005-b875e9c950c8"><g class="fills" id="fills-a54b1960-a4ea-8001-8005-b875e9c950c8"><path d="M224.684,82.176L225.569,74.394C226.459,73.953,226.967,73.057,227.095,71.704C227.187,70.702,227.439,69.949,227.854,69.446C227.984,69.295,228.073,69.111,228.112,68.915C228.335,67.854,228.571,66.821,228.818,65.814C229.085,64.728,229.215,63.663,229.207,62.620C229.182,59.370,229.249,56.261,229.404,53.290C229.408,53.212,229.385,53.145,229.333,53.090C229.296,53.048,229.259,53.012,229.219,52.977C229.099,52.881,229.035,52.755,229.027,52.596C228.907,50.619,229.033,48.814,228.339,46.893C227.089,43.473,224.523,40.797,223.249,37.389C222.866,36.361,222.519,35.290,222.207,34.176C221.853,32.927,221.412,32.892,220.886,34.069C219.360,37.470,214.725,40.578,211.363,42.157C208.093,43.700,203.978,45.383,199.018,47.205C193.797,49.123,186.951,51.399,178.477,54.032C174.215,55.359,170.375,56.482,166.957,57.402C161.570,58.854,156.627,60.200,152.130,61.439C145.630,63.232,139.657,66.041,134.210,69.863C132.104,71.345,130.208,73.148,128.521,75.274C128.474,75.332,128.475,75.388,128.527,75.442L128.641,75.561C128.669,75.590,128.697,75.590,128.725,75.561C131.373,72.904,134.411,70.775,137.841,69.177C140.796,67.805,143.771,66.573,146.765,65.482C150.049,64.291,153.577,63.441,157.017,62.525C159.609,61.829,162.157,61.058,164.661,60.210C169.369,58.612,174.118,57.383,178.824,55.799C187.968,52.724,197.249,50.313,206.667,48.566C206.699,48.557,206.729,48.564,206.757,48.585C206.817,48.631,206.825,48.705,206.781,48.809C206.750,48.897,206.692,48.961,206.608,49.003C200.147,52.185,193.413,54.456,186.386,55.830C181.768,56.723,177.192,58.164,172.479,59.331C169.006,60.188,165.549,61.149,162.107,62.214C158.176,63.429,154.377,64.605,150.713,65.739C147.161,66.842,143.327,68.735,139.211,71.418C130.473,77.110,126.590,86.350,126.351,96.959C126.236,101.933,126.196,107.758,126.231,114.431C126.272,121.838,124.999,130.356,121.470,136.870C118.212,142.890,114.236,148.332,109.543,153.194C105.388,157.495,100.571,162.217,95.092,167.359C93.696,168.673,92.398,169.980,91.198,171.278C87.920,174.828,84.457,178.248,81.598,181.986C72.435,193.979,66.783,208.943,64.048,224.137C62.473,232.894,61.104,241.903,59.939,251.163C58.216,264.891,52.959,276.803,42.910,286.039C34.512,293.751,25.468,299.892,26.258,313.371C26.294,313.940,26.475,315.124,26.802,316.921C27.001,318.019,27.338,319.151,27.813,320.316C28.606,322.254,29.376,324.283,30.121,326.400C28.989,325.746,28.086,325.046,27.411,324.297C19.396,315.391,15.245,304.459,19.318,292.709C19.821,291.262,20.482,289.722,21.304,288.091C22.193,286.324,22.988,284.923,23.690,283.891C25.771,280.837,27.095,278.787,27.661,277.739C28.076,277.639,28.582,277.102,29.180,276.128C33.427,271.182,36.126,265.581,37.279,259.323C38.434,252.502,37.238,246.038,35.263,239.386C32.243,229.196,29.736,221.134,29.881,211.174C30.068,198.252,33.972,186.890,41.593,177.084C46.892,170.257,53.920,164.904,61.396,160.086C65.156,157.661,68.915,154.801,72.671,151.506C79.520,145.503,84.568,138.364,88.157,129.647C90.542,123.864,92.256,118.342,93.300,113.078C95.753,100.698,96.740,88.243,98.378,75.663C99.184,69.489,100.695,62.783,102.913,55.544C108.140,38.476,117.367,24.720,130.594,14.278C138.771,7.819,147.862,4.000,157.761,1.704C187.895,-5.285,217.095,9.598,228.963,39.444C233.227,50.165,233.340,61.841,229.255,72.686C228.378,75.016,227.422,77.271,226.390,79.450C225.967,80.344,225.397,81.252,224.684,82.176ZZ" class="cls-8"/></g></g><g id="shape-a54b1960-a4ea-8001-8005-b875e9ca3467"><g class="fills" id="fills-a54b1960-a4ea-8001-8005-b875e9ca3467"><path d="M225.569,74.394L224.684,82.176L223.530,86.188C221.166,85.382,219.265,85.725,217.830,87.218C216.896,88.188,215.624,89.876,214.014,92.285C212.559,94.465,211.480,96.464,210.778,98.282C208.433,104.353,209.444,112.559,213.517,118.132C213.639,118.295,213.610,118.531,213.453,118.657C213.406,118.695,213.349,118.721,213.289,118.731C211.992,118.943,210.830,119.323,209.461,119.355C207.448,119.404,205.374,119.399,203.241,119.336C201.475,119.282,200.276,118.631,199.646,117.382C199.522,117.137,199.413,117.143,199.317,117.401C198.355,120.041,203.564,121.526,205.065,122.113C205.280,122.196,205.444,122.343,205.556,122.556L206.130,123.642C206.696,124.716,207.147,124.665,207.482,123.493C207.557,123.222,207.621,122.946,207.673,122.663C207.717,122.431,207.851,122.295,208.074,122.258L211.281,121.696C210.586,122.974,210.049,124.378,209.665,125.909C209.516,126.514,209.067,127.281,208.660,127.743C206.929,129.731,205.416,131.914,204.120,134.290C204.060,134.402,203.989,134.491,203.905,134.558C203.778,134.658,203.676,134.720,203.600,134.745C203.525,134.138,203.166,133.863,202.524,133.921C200.183,134.142,197.816,133.907,195.424,133.216C195.241,133.164,195.046,133.236,194.940,133.397C194.760,133.672,194.754,133.954,194.921,134.245C195.778,135.727,197.102,136.519,198.893,136.623C199.498,136.661,200.282,136.400,201.243,135.843C201.989,135.415,202.775,135.048,203.600,134.745C203.030,135.810,202.484,136.863,201.962,137.903C198.343,145.092,192.870,146.871,185.674,143.932C181.220,142.113,177.075,139.709,173.239,136.718C173.180,136.673,173.112,136.662,173.035,136.687C172.955,136.719,172.889,136.807,172.837,136.949C172.694,136.445,172.382,136.010,171.904,135.644C168.339,132.920,165.089,129.868,162.155,126.490C159.583,122.571,157.601,118.561,156.209,114.459C154.801,110.303,153.894,107.660,153.488,106.534L153.159,103.407C153.131,103.146,152.914,102.953,152.662,102.964C152.108,102.984,151.555,102.954,151.006,102.870C145.679,102.055,141.806,99.507,139.390,95.226C135.891,89.023,137.141,80.412,143.391,76.662C146.477,74.808,150.604,74.739,153.518,77.148C155.153,78.504,156.467,80.089,157.460,81.902C157.612,82.180,157.896,82.352,158.202,82.352C165.433,82.309,172.682,80.099,179.496,77.003C184.169,74.878,188.354,72.616,192.050,70.220C197.716,66.555,202.736,62.799,207.110,58.951C210.188,56.243,213.782,52.514,217.889,47.763C218.679,46.852,219.163,45.792,219.767,44.761C219.943,44.461,220.061,44.485,220.126,44.830C220.252,45.503,220.424,46.289,220.718,46.895C224.874,55.410,226.490,64.577,225.569,74.394ZZM142.477,81.407C141.903,82.090,141.532,82.766,141.364,83.436C141.105,84.480,141.128,85.558,141.430,86.668C142.429,90.325,144.122,93.739,147.124,95.791C148.021,96.399,148.857,96.457,149.631,95.966C151.916,94.512,153.698,92.022,153.591,89.021C153.411,84.235,150.941,79.436,146.329,78.731C144.565,78.462,143.584,80.097,142.477,81.407ZZM180.202,83.854C181.442,84.207,182.249,84.864,182.624,85.825C182.947,86.649,183.186,87.168,183.342,87.385C183.677,87.860,184.012,88.333,184.347,88.808C184.467,88.979,184.774,89.172,185.268,89.388C185.583,89.525,185.929,89.583,186.309,89.563C189.172,89.413,192.033,89.255,194.892,89.088C197.405,88.939,200.026,88.595,202.758,88.059C203.081,88.113,203.469,88.084,203.924,87.971C205.025,87.696,206.077,85.981,206.645,85.039C206.886,84.640,206.783,84.116,206.412,83.847C205.488,83.174,204.350,82.601,203.003,82.132C196.400,79.835,189.789,79.679,183.169,81.663C182.726,81.796,182.272,81.928,181.805,82.056C180.314,82.463,179.780,83.062,180.202,83.854ZZM182.972,96.160C182.441,95.823,181.957,95.359,181.518,94.768C181.493,94.735,181.465,94.707,181.434,94.687C181.354,94.633,181.282,94.625,181.219,94.662C181.055,94.758,180.983,94.904,181.004,95.099C181.132,96.185,181.492,97.127,182.087,97.926C185.716,102.777,190.536,104.946,196.550,104.434C197.642,104.338,198.584,104.230,199.373,104.110C200.047,104.006,200.075,103.805,199.457,103.505C197.998,102.806,197.136,101.583,195.580,101.090C190.059,99.343,185.568,95.905,182.577,90.688C182.422,90.423,182.344,90.445,182.344,90.757C182.326,92.336,182.984,94.288,183.349,95.873C183.445,96.285,183.319,96.381,182.972,96.160ZZM178.186,118.025C182.935,119.822,189.712,118.418,190.394,112.340C190.927,107.635,186.937,103.842,183.414,101.670C182.593,101.162,181.839,100.572,181.153,99.897C178.821,97.594,176.200,96.285,172.869,96.821C170.768,97.157,169.162,98.083,168.054,99.597C166.662,101.494,166.493,103.937,167.546,106.923C169.475,112.373,173.023,116.073,178.186,118.025ZZM206.801,129.352C207.307,129.022,207.558,128.750,207.555,128.534C207.535,127.541,206.789,126.729,205.838,126.667C202.231,126.443,198.859,127.072,195.360,127.573C194.349,127.722,193.374,127.560,192.369,127.398C192.251,127.380,192.142,127.465,192.125,127.588C192.125,127.592,192.125,127.594,192.125,127.598L192.089,128.009C192.073,128.146,192.131,128.236,192.262,128.278C195.815,129.410,199.492,130.106,203.292,130.368C204.267,130.430,205.086,130.138,206.031,130.100C206.075,130.096,206.119,130.087,206.162,130.075C206.374,130.004,206.500,129.886,206.539,129.719C206.582,129.560,206.670,129.438,206.801,129.352ZZ" class="cls-3"/></g></g><g id="shape-a54b1960-a4ea-8001-8005-b875e9ca4bb1"><g class="fills" id="fills-a54b1960-a4ea-8001-8005-b875e9ca4bb1"><path d="M159.966,79.879C166.697,78.406,172.802,76.342,178.281,73.689C185.012,70.431,191.638,66.390,198.163,61.564C203.886,57.337,210.283,52.020,217.357,45.613C217.417,45.555,217.475,45.559,217.531,45.626L217.537,45.626C217.569,45.668,217.567,45.707,217.531,45.745C212.618,50.833,207.460,55.573,202.058,59.967C193.404,67.002,184.178,72.553,174.376,76.622C170.656,78.166,165.213,79.597,158.047,80.916C157.956,80.935,157.863,80.897,157.808,80.816L157.617,80.529C157.517,80.383,157.552,80.299,157.725,80.279C158.426,80.188,159.174,80.055,159.966,79.879ZZ" class="cls-3"/></g></g><g id="shape-a54b1960-a4ea-8001-8005-b875e9cb15ca"><g class="fills" id="fills-a54b1960-a4ea-8001-8005-b875e9cb15ca"><path d="M106.439,171.716C106.839,171.757,107.159,171.871,107.402,172.059C115.674,178.349,121.572,187.223,124.772,197.194C128.283,208.139,128.230,221.255,122.828,231.601C122.130,232.941,121.968,232.874,122.343,231.401C122.607,230.366,122.784,229.311,122.876,228.237C123.203,224.306,123.289,220.493,123.134,216.798C123.102,216.021,122.994,216.010,122.811,216.767C121.862,220.660,121.129,224.615,120.609,228.630C119.453,237.658,118.741,247.963,118.474,259.550C118.080,277.009,117.860,294.474,117.816,311.942L118.145,332.747C118.155,333.414,118.579,333.998,119.192,334.188C121.456,334.896,123.580,335.692,125.562,336.579C130.092,338.608,135.221,341.410,140.946,344.984C152.529,352.219,164.207,359.700,175.978,367.429C181.679,371.173,187.695,374.786,193.486,378.362C201.548,383.348,209.377,387.672,217.423,391.959C218.046,392.292,218.800,392.199,219.337,391.722C221.747,389.564,224.014,387.260,226.862,385.781C232.992,382.587,239.344,380.933,246.307,379.286C250.805,378.225,255.381,376.709,259.962,375.504C261.410,375.125,262.921,374.849,264.497,374.674C264.805,374.640,265.083,374.873,265.116,375.195C265.117,375.210,265.118,375.227,265.118,375.242C265.146,376.186,264.749,376.927,263.927,377.463C260.978,379.385,258.006,380.994,254.638,382.261C253.019,382.869,251.399,383.493,249.775,384.133C247.390,385.081,244.231,386.001,240.295,386.891C240.083,386.940,239.950,387.076,239.894,387.296C239.835,387.533,239.922,387.652,240.158,387.652C242.956,387.648,245.564,387.329,247.981,386.697C249.771,386.227,251.522,385.771,253.232,385.331C259.154,383.813,263.817,380.524,267.223,375.465C267.613,374.882,267.849,373.931,267.929,372.613C267.861,373.250,267.931,373.794,268.139,374.248C268.226,374.439,268.374,374.548,268.582,374.572C269.459,374.659,270.320,374.640,271.166,374.516C271.461,374.474,271.597,374.590,271.572,374.859C271.302,374.905,271.188,375.053,271.231,375.302C269.348,379.627,266.261,384.756,262.248,386.872C259.153,388.506,256.065,390.050,252.982,391.502C252.433,391.760,251.987,392.091,251.649,392.495C251.186,393.035,251.295,393.237,251.978,393.100C256.631,392.168,260.782,390.437,264.431,387.909C265.851,386.922,267.061,385.536,268.061,383.747C268.380,383.177,268.791,382.620,269.293,382.074C269.728,381.608,270.130,381.081,270.502,380.495L270.047,385.731L268.922,387.728C267.315,389.624,266.326,390.854,265.955,391.416C264.616,393.455,262.887,394.865,260.769,395.646C258.939,396.314,257.150,396.970,255.248,397.413C252.940,397.941,250.617,398.681,248.281,399.634C245.864,400.129,243.286,400.216,240.547,399.896C237.318,399.517,235.686,399.326,235.655,399.322C222.093,398.312,208.600,397.733,195.174,397.587C187.749,393.931,180.384,390.388,173.079,386.960C158.443,380.103,144.333,373.101,130.396,365.712C121.938,361.228,113.872,356.305,106.196,350.942C98.986,345.904,93.726,339.329,90.417,331.218C87.277,323.529,84.777,315.256,83.945,306.975C83.658,304.067,83.250,301.149,82.719,298.221C82.707,298.159,82.676,298.113,82.623,298.084L82.415,297.965C82.251,297.878,82.170,297.929,82.170,298.121L82.145,300.561C79.418,278.450,78.380,256.252,79.035,233.967C79.350,223.313,80.933,212.877,83.784,202.660C87.493,189.356,95.013,179.139,106.345,172.008C106.441,171.946,106.472,171.849,106.439,171.716ZZ" class="cls-3"/></g></g><g id="shape-a54b1960-a4ea-8001-8005-b875e9cb4250"><g class="fills" id="fills-a54b1960-a4ea-8001-8005-b875e9cb4250"><path d="M176.086,186.448C177.653,187.833,179.070,189.389,180.333,191.115C182.406,193.940,183.453,195.367,183.473,195.396C186.160,198.774,188.795,202.198,191.374,205.667C194.999,210.547,198.077,216.064,200.609,222.216C201.729,223.968,201.889,225.705,201.087,227.427C200.169,229.403,198.609,230.680,196.403,231.258C194.430,231.779,192.300,231.901,190.016,231.627C186.746,231.239,183.885,230.320,181.433,228.869C179.885,227.953,178.358,227.115,176.851,226.354C171.838,223.824,167.297,220.986,163.225,217.837C156.283,212.462,149.899,206.438,144.073,199.766C141.768,197.124,139.523,194.578,137.338,192.128C135.616,190.189,134.127,188.161,132.871,186.044C130.654,181.846,128.128,177.753,125.293,173.763C127.371,174.391,130.833,175.695,135.682,177.676C141.380,180.002,148.298,182.173,156.437,184.190C160.894,185.294,165.379,185.775,169.990,186.400C172.047,186.681,174.039,186.587,176.086,186.448ZZM173.850,217.317C175.471,219.994,177.079,222.696,178.850,225.279C179.640,226.428,180.689,227.128,181.996,227.382C182.538,227.486,182.628,227.322,182.265,226.890L174.125,217.155C174.078,217.101,174.029,217.100,173.982,217.149L173.850,217.317ZC173.850,217.287,173.842,217.306,173.850,217.317ZZ" class="cls-3"/></g></g><g id="shape-a54b1960-a4ea-8001-8005-b875e9cbd555"><g class="fills" id="fills-a54b1960-a4ea-8001-8005-b875e9cbd555"><path d="M216.634,279.108L223.189,283.201L227.986,289.941C227.806,290.336,227.609,290.598,227.393,290.727C227.217,290.835,227.055,290.819,226.903,290.678C226.612,290.407,226.291,290.289,225.941,290.322C224.744,289.407,223.616,288.365,222.556,287.196C222.113,286.705,221.588,286.401,220.983,286.284C220.784,286.246,220.594,286.282,220.415,286.391C217.476,288.216,215.352,289.326,214.044,289.717C205.064,292.396,196.627,295.096,188.732,297.817C188.552,297.876,188.360,297.774,188.303,297.586C188.285,297.526,188.281,297.461,188.296,297.398C188.733,295.563,189.797,294.384,191.317,293.498C192.887,292.591,194.515,291.657,196.197,290.696C196.696,290.413,197.071,290.026,197.322,289.535C197.458,289.272,197.394,289.198,197.130,289.310C193.259,290.941,189.648,292.857,186.298,295.058C185.520,295.569,184.728,296.143,183.918,296.780C182.866,297.612,181.803,298.252,180.730,298.702C178.357,299.701,175.993,300.721,173.636,301.766C173.058,302.019,172.734,301.822,172.667,301.173L172.512,299.732C172.488,299.541,172.538,299.373,172.661,299.227C175.348,296.078,178.077,293.512,180.844,291.528C183.906,289.340,187.541,287.062,191.748,284.695C191.835,284.650,191.857,284.579,191.813,284.483L191.723,284.282C191.699,284.233,191.664,284.218,191.615,284.238C188.126,285.678,184.844,287.416,181.770,289.455C178.630,291.539,175.382,293.412,172.176,295.370C170.070,296.515,168.003,297.707,165.973,298.946C165.530,299.217,165.154,299.179,164.843,298.833C164.691,298.665,164.698,298.400,164.859,298.242C164.859,298.242,164.859,298.242,164.861,298.241C165.456,297.646,165.997,296.979,166.487,296.238C166.559,296.130,166.791,295.549,167.182,294.497C167.396,293.918,167.780,293.394,168.330,292.924C169.801,291.785,171.296,290.650,172.815,289.523C174.271,288.442,175.784,287.412,177.356,286.435C180.494,284.476,183.615,282.477,186.717,280.438C186.790,280.391,186.813,280.291,186.768,280.215C186.765,280.210,186.762,280.207,186.758,280.202L186.650,280.046C186.536,279.874,186.315,279.822,186.142,279.927C184.922,280.657,183.689,281.206,182.512,281.949C176.227,285.901,170.057,289.835,163.999,293.748C163.857,293.840,163.685,293.867,163.521,293.823C163.127,293.719,162.932,293.541,162.941,293.286C162.965,292.558,163.139,292.051,163.462,291.764C165.332,290.121,167.010,288.648,168.498,287.347L176.734,281.706C178.880,280.437,180.975,279.158,183.021,277.868C185.804,276.113,188.821,275.089,192.070,274.797C200.564,274.031,208.752,275.470,216.634,279.108ZZ" class="cls-3"/></g></g><g id="shape-a54b1960-a4ea-8001-8005-b875e9cbd556"><g class="fills" id="fills-a54b1960-a4ea-8001-8005-b875e9cbd556"><path d="M164.268,301.777C165.018,300.862,165.908,300.124,166.941,299.562C168.648,298.626,169.515,298.150,169.543,298.132C170.664,297.400,171.798,296.659,172.947,295.911C173.409,295.565,173.926,295.319,174.495,295.169C174.703,295.115,174.734,295.169,174.591,295.331C172.478,297.681,170.773,299.172,169.477,299.800C168.034,300.502,166.588,301.204,165.140,301.903C164.905,302.015,164.613,301.974,164.268,301.777ZZ" class="cls-3"/></g></g><g id="shape-a54b1960-a4ea-8001-8005-b875e9cce392"><g class="fills" id="fills-a54b1960-a4ea-8001-8005-b875e9cce392"><path d="M225.569,74.394C226.490,64.576,224.874,55.410,220.718,46.893C220.426,46.288,220.252,45.502,220.126,44.828C220.061,44.483,219.943,44.460,219.767,44.760C219.162,45.789,218.678,46.850,217.889,47.762C213.782,52.513,210.189,56.243,207.110,58.950C202.736,62.798,197.715,66.555,192.050,70.219C188.353,72.615,184.168,74.876,179.496,77.002C172.683,80.097,165.434,82.306,158.202,82.351C157.895,82.351,157.612,82.178,157.460,81.901C156.467,80.088,155.153,78.503,153.518,77.147C150.605,74.738,146.477,74.807,143.391,76.660C137.141,80.411,135.891,89.022,139.390,95.225C141.806,99.506,145.678,102.054,151.006,102.869C151.555,102.953,152.108,102.983,152.662,102.963C152.914,102.951,153.131,103.145,153.159,103.406L153.488,106.532C153.412,108.975,153.290,111.408,153.122,113.833C152.784,118.797,151.900,123.431,150.473,127.736C146.257,140.428,137.045,151.486,126.386,158.923C123.598,160.871,120.859,162.584,118.168,164.065L115.381,165.544L105.655,170.111L104.477,170.860C103.640,171.089,102.625,171.542,101.433,172.220C92.019,177.591,85.346,185.423,81.413,195.720C76.168,209.448,75.396,224.444,75.749,239.595C76.168,257.554,77.155,275.073,78.709,292.156C79.104,296.511,80.135,307.013,81.802,323.662C82.667,332.303,83.641,339.735,84.721,345.959C78.194,346.029,73.595,345.875,70.927,345.496C58.953,343.782,47.784,339.636,37.420,333.060C34.585,331.043,32.153,328.823,30.123,326.402C29.378,324.285,28.609,322.257,27.815,320.318C27.340,319.153,27.003,318.021,26.804,316.924C26.478,315.127,26.296,313.943,26.260,313.373C25.470,299.895,34.515,293.755,42.912,286.041C52.960,276.806,58.218,264.893,59.941,251.165C61.105,241.904,62.475,232.897,64.051,224.140C66.784,208.945,72.436,193.982,81.600,181.988C84.460,178.250,87.922,174.830,91.201,171.280C92.401,169.982,93.698,168.676,95.094,167.361C100.573,162.219,105.390,157.498,109.545,153.196C114.239,148.333,118.215,142.892,121.472,136.873C125.001,130.358,126.275,121.840,126.233,114.433C126.197,107.760,126.237,101.936,126.353,96.961C126.593,86.353,130.475,77.111,139.214,71.421C143.329,68.738,147.163,66.845,150.716,65.742C154.380,64.606,158.179,63.431,162.110,62.217C165.550,61.152,169.008,60.191,172.482,59.334C177.194,58.166,181.771,56.725,186.388,55.833C193.416,54.460,200.151,52.189,206.610,49.005C206.694,48.964,206.752,48.899,206.784,48.812C206.828,48.708,206.820,48.633,206.760,48.588C206.732,48.567,206.701,48.561,206.670,48.569C197.252,50.316,187.971,52.727,178.827,55.801C174.119,57.386,169.370,58.616,164.663,60.213C162.159,61.061,159.611,61.833,157.019,62.527C153.580,63.444,150.052,64.293,146.768,65.485C143.773,66.575,140.799,67.806,137.843,69.180C134.414,70.778,131.376,72.905,128.727,75.564C128.700,75.593,128.672,75.593,128.644,75.564L128.530,75.445C128.477,75.390,128.476,75.335,128.524,75.276C130.211,73.150,132.106,71.347,134.212,69.866C139.659,66.043,145.633,63.235,152.132,61.442C156.630,60.202,161.572,58.856,166.959,57.404C170.377,56.485,174.217,55.362,178.480,54.035C186.954,51.401,193.800,49.126,199.020,47.207C203.980,45.385,208.096,43.703,211.365,42.159C214.727,40.580,219.362,37.473,220.888,34.072C221.415,32.894,221.855,32.930,222.210,34.178C222.520,35.294,222.867,36.365,223.251,37.392C224.525,40.799,227.091,43.476,228.341,46.896C229.035,48.818,228.909,50.621,229.029,52.599C229.038,52.757,229.101,52.884,229.221,52.980C229.261,53.013,229.299,53.051,229.335,53.093C229.387,53.147,229.410,53.213,229.407,53.293C229.251,56.263,229.186,59.373,229.209,62.622C229.217,63.667,229.088,64.732,228.821,65.817C228.573,66.823,228.338,67.858,228.114,68.918C228.075,69.114,227.987,69.296,227.857,69.448C227.442,69.952,227.189,70.704,227.097,71.707C226.970,73.059,226.461,73.956,225.569,74.394ZZM159.966,79.879C159.173,80.054,158.425,80.187,157.723,80.278C157.552,80.298,157.516,80.382,157.615,80.527L157.807,80.815C157.862,80.894,157.956,80.934,158.046,80.915C165.212,79.595,170.655,78.165,174.375,76.621C184.177,72.553,193.403,67.001,202.057,59.966C207.460,55.572,212.618,50.833,217.530,45.744C217.566,45.706,217.567,45.667,217.536,45.625L217.530,45.625C217.474,45.558,217.416,45.554,217.356,45.612C210.283,52.019,203.884,57.336,198.162,61.562C191.638,66.388,185.010,70.429,178.279,73.687C172.801,76.341,166.696,78.405,159.966,79.879ZZ" class="cls-13"/></g></g><g id="shape-a54b1960-a4ea-8001-8005-b875e9cd3612"><g class="fills" id="fills-a54b1960-a4ea-8001-8005-b875e9cd3612"><path d="M183.348,95.872C182.982,94.287,182.325,92.334,182.343,90.756C182.343,90.444,182.420,90.421,182.576,90.687C185.566,95.904,190.058,99.343,195.579,101.089C197.134,101.581,197.996,102.805,199.456,103.504C200.073,103.804,200.046,104.005,199.372,104.109C198.582,104.229,197.641,104.338,196.549,104.433C190.535,104.944,185.714,102.775,182.086,97.925C181.491,97.126,181.130,96.184,181.003,95.097C180.983,94.902,181.055,94.757,181.218,94.660C181.282,94.622,181.354,94.631,181.433,94.686C181.464,94.706,181.492,94.734,181.516,94.767C181.954,95.358,182.440,95.822,182.970,96.158C183.317,96.379,183.442,96.284,183.348,95.872ZZ" class="cls-13"/></g></g><g id="shape-a54b1960-a4ea-8001-8005-b875e9cd3613"><g class="fills" id="fills-a54b1960-a4ea-8001-8005-b875e9cd3613"><path d="M217.345,100.466C218.816,103.281,220.689,102.094,223.003,102.294C223.099,102.304,223.168,102.393,223.159,102.492C223.159,102.492,223.159,102.493,223.159,102.494L223.141,102.701C223.132,102.784,223.088,102.834,223.009,102.850L221.053,103.268C220.849,103.310,220.710,103.429,220.634,103.624C220.591,103.728,220.575,103.831,220.587,103.935C220.622,104.209,220.860,104.401,221.119,104.366C221.139,104.363,221.160,104.358,221.179,104.353C221.610,104.233,221.973,104.275,222.268,104.478C222.702,104.779,222.672,105.013,222.178,105.184C220.603,105.717,218.766,105.635,216.669,104.941C216.362,104.724,216.105,104.333,215.897,103.767C215.831,103.578,215.645,103.466,215.454,103.498C214.800,103.615,214.192,103.547,213.630,103.292C213.283,103.138,213.086,102.865,213.038,102.474L212.907,101.464C212.839,100.948,213.037,100.788,213.499,100.984C214.656,101.470,215.937,101.298,217.345,100.466ZZ" class="cls-13"/></g></g><g id="shape-a54b1960-a4ea-8001-8005-b875e9cd6dd0"><g class="fills" id="fills-a54b1960-a4ea-8001-8005-b875e9cd6dd0"><path d="M223.530,86.188C222.884,89.564,220.354,90.700,219.182,93.477C218.325,95.515,217.712,97.845,217.345,100.466C215.937,101.298,214.656,101.470,213.499,100.984C213.037,100.789,212.839,100.948,212.907,101.464L213.038,102.474C213.085,102.865,213.283,103.138,213.630,103.292C214.192,103.545,214.800,103.615,215.454,103.498C215.645,103.466,215.831,103.578,215.897,103.767C216.105,104.333,216.362,104.724,216.669,104.941C215.712,108.772,214.504,112.154,214.451,116.360C214.445,117.190,214.755,117.914,215.102,118.632C215.233,118.912,215.140,119.247,214.888,119.406L211.281,121.696L208.074,122.258C207.851,122.296,207.717,122.431,207.673,122.663C207.621,122.946,207.558,123.223,207.482,123.493C207.147,124.667,206.696,124.716,206.130,123.642L205.556,122.556C205.444,122.343,205.280,122.196,205.065,122.113C203.564,121.526,198.355,120.041,199.317,117.401C199.413,117.143,199.522,117.137,199.646,117.382C200.276,118.631,201.474,119.282,203.241,119.336C205.375,119.398,207.448,119.404,209.461,119.355C210.831,119.323,211.992,118.943,213.289,118.731C213.485,118.698,213.618,118.507,213.588,118.301C213.578,118.239,213.554,118.181,213.517,118.131C209.444,112.558,208.433,104.352,210.778,98.280C211.480,96.462,212.559,94.464,214.014,92.284C215.624,89.876,216.896,88.186,217.830,87.217C219.265,85.722,221.165,85.379,223.530,86.188ZZ" class="cls-1"/></g></g><g id="shape-a54b1960-a4ea-8001-8005-b875e9cd8fbf"><g class="fills" id="fills-a54b1960-a4ea-8001-8005-b875e9cd8fbf"><path d="M163.800,168.345L171.678,171.122C172.345,172.179,173.098,173.102,173.939,173.892C175.344,175.215,176.180,176.038,176.452,176.364C180.642,181.360,184.470,186.648,187.935,192.227C188.043,192.405,188.093,192.599,188.085,192.807L188.013,194.198C187.670,193.990,187.471,193.871,187.415,193.842C186.617,193.409,186.350,193.649,186.614,194.560C186.682,194.793,186.821,195.058,187.032,195.353C189.054,198.174,190.735,200.975,192.954,203.996C195.044,206.854,196.977,210.138,198.755,213.849C200.067,216.587,200.685,219.376,200.610,222.218C198.078,216.065,194.999,210.548,191.375,205.669C188.795,202.199,186.161,198.775,183.474,195.397C183.455,195.368,182.407,193.941,180.334,191.116C179.070,189.390,177.654,187.834,176.088,186.449C174.784,185.297,173.578,183.999,172.468,182.556C170.507,180.002,169.509,178.704,169.478,178.662C167.998,176.831,166.599,174.937,165.279,172.977C164.118,171.246,163.625,169.702,163.800,168.345ZZ" class="cls-1"/></g></g><g id="shape-a54b1960-a4ea-8001-8005-b875e9cdfaa7"><g class="fills" id="fills-a54b1960-a4ea-8001-8005-b875e9cdfaa7"><path d="M202.757,88.060C197.971,85.455,193.109,84.173,188.168,84.209C185.302,84.230,182.646,84.112,180.202,83.854C179.780,83.063,180.314,82.465,181.805,82.057C182.271,81.928,182.726,81.797,183.169,81.664C189.789,79.680,196.400,79.836,203.003,82.133C204.350,82.603,205.488,83.175,206.412,83.848C206.784,84.117,206.886,84.642,206.645,85.040C206.077,85.982,205.024,87.698,203.924,87.972C203.469,88.085,203.081,88.114,202.757,88.060ZZ" class="cls-4"/></g></g><g id="shape-a54b1960-a4ea-8001-8005-b875e9cdfaa8"><g class="fills" id="fills-a54b1960-a4ea-8001-8005-b875e9cdfaa8"><path d="M162.159,126.487C165.094,129.866,168.344,132.917,171.909,135.642C172.387,136.008,172.699,136.442,172.842,136.946C170.286,140.195,168.015,143.621,166.030,147.224C165.735,141.154,164.454,134.987,162.190,128.722C161.871,127.845,161.861,127.100,162.159,126.487ZZ" class="cls-4"/></g></g><g id="shape-a54b1960-a4ea-8001-8005-b875e9cdfaa9"><g class="fills" id="fills-a54b1960-a4ea-8001-8005-b875e9cdfaa9"><path d="M171.678,171.122L176.793,173.250C177.248,174.244,177.714,175.215,178.192,176.164C178.647,177.063,179.265,177.924,180.047,178.747C181.666,180.469,183.158,182.243,184.526,184.070C185.764,185.724,186.901,187.614,187.858,189.523C188.795,191.400,189.746,193.364,190.711,195.414C190.830,195.664,190.731,195.967,190.491,196.091C190.476,196.100,190.459,196.106,190.442,196.113C190.311,196.167,190.141,196.194,189.933,196.194L188.013,194.197L188.085,192.805C188.093,192.598,188.042,192.404,187.935,192.225C184.470,186.647,180.642,181.359,176.452,176.363C176.181,176.038,175.344,175.214,173.939,173.891C173.098,173.101,172.345,172.177,171.678,171.122ZZ" class="cls-4"/></g></g><g id="shape-a54b1960-a4ea-8001-8005-b875e9ce1ca7"><g class="fills" id="fills-a54b1960-a4ea-8001-8005-b875e9ce1ca7"><path d="M176.732,281.703L168.496,287.344C168.074,287.348,167.646,287.386,167.216,287.457C166.849,287.515,166.779,287.390,167.007,287.082C167.043,287.033,167.019,286.968,166.935,286.888C166.827,286.792,166.708,286.776,166.576,286.839C164.249,287.919,161.719,287.919,159.255,288.636C157.114,289.256,154.940,289.826,152.735,290.345C149.853,291.025,146.544,291.231,143.637,290.601C135.898,288.928,129.651,285.313,124.898,279.756C123.193,277.765,121.932,275.513,120.454,273.459C119.904,272.698,119.880,271.919,120.382,271.125C120.414,271.080,120.444,271.034,120.472,270.989C120.823,270.485,121.194,270.468,121.585,270.939C126.182,276.543,131.328,280.351,137.023,282.365C146.083,285.569,155.380,285.989,164.914,283.627C169.823,282.407,174.307,280.916,178.367,279.152C178.386,279.143,178.807,278.894,179.629,278.404C180.079,278.133,180.610,277.977,181.220,277.935C181.564,277.915,181.596,278.007,181.322,278.216L176.732,281.703ZZ" class="cls-4"/></g></g><g id="shape-a54b1960-a4ea-8001-8005-b875e9ce6153"><g class="fills" id="fills-a54b1960-a4ea-8001-8005-b875e9ce6153"><path d="M104.478,170.860C105.129,170.931,105.782,171.216,106.439,171.714C106.471,171.847,106.439,171.945,106.344,172.008C95.011,179.138,87.490,189.356,83.783,202.660C80.932,212.877,79.348,223.313,79.033,233.967C78.379,256.252,79.416,278.450,82.144,300.561C83.093,310.657,84.084,320.751,85.116,330.844C85.312,332.750,85.746,335.964,86.420,340.491C86.987,344.306,87.868,347.691,89.063,350.643C90.977,355.361,94.073,359.313,98.353,362.500C96.650,361.723,95.136,360.691,93.812,359.405L89.333,355.293C87.354,352.530,85.818,349.419,84.721,345.957C83.641,339.734,82.667,332.301,81.802,323.661C80.135,307.012,79.104,296.510,78.709,292.154C77.155,275.073,76.167,257.553,75.749,239.594C75.396,224.442,76.168,209.448,81.413,195.719C85.346,185.422,92.019,177.590,101.433,172.218C102.625,171.540,103.641,171.086,104.478,170.860ZZ" class="cls-10"/></g></g><g id="shape-a54b1960-a4ea-8001-8005-b875e9ce6154"><g class="fills" id="fills-a54b1960-a4ea-8001-8005-b875e9ce6154"><path d="M142.477,81.409C143.584,80.098,144.565,78.463,146.329,78.732C150.941,79.437,153.411,84.236,153.591,89.022C153.699,92.023,151.916,94.514,149.631,95.967C148.857,96.458,148.021,96.400,147.124,95.792C144.122,93.740,142.429,90.326,141.430,86.670C141.126,85.559,141.105,84.482,141.364,83.437C141.532,82.767,141.903,82.091,142.477,81.409ZZ" class="cls-9"/></g></g><g id="shape-a54b1960-a4ea-8001-8005-b875e9ce9936"><g class="fills" id="fills-a54b1960-a4ea-8001-8005-b875e9ce9936"><path d="M180.202,83.855C182.646,84.113,185.302,84.231,188.168,84.211C193.109,84.173,197.971,85.457,202.757,88.061C200.025,88.598,197.403,88.941,194.891,89.090C192.032,89.256,189.171,89.415,186.308,89.565C185.929,89.586,185.582,89.527,185.267,89.391C184.773,89.174,184.466,88.980,184.345,88.811C184.010,88.336,183.675,87.862,183.340,87.387C183.185,87.171,182.946,86.651,182.623,85.828C182.248,84.866,181.441,84.209,180.202,83.855ZZ" class="cls-9"/></g></g><g id="shape-a54b1960-a4ea-8001-8005-b875e9ced6f5"><g class="fills" id="fills-a54b1960-a4ea-8001-8005-b875e9ced6f5"><path d="M153.489,106.531C153.895,107.658,154.803,110.300,156.210,114.456C157.602,118.559,159.584,122.569,162.156,126.487C161.857,127.099,161.867,127.843,162.186,128.721C164.451,134.986,165.731,141.154,166.026,147.223C163.462,151.795,162.220,156.633,162.300,161.737C162.337,163.941,162.837,166.144,163.801,168.345C163.625,169.701,164.118,171.245,165.279,172.976C166.599,174.934,167.998,176.830,169.478,178.661C169.509,178.703,170.507,180.000,172.468,182.554C173.576,183.998,174.783,185.296,176.088,186.448C174.042,186.585,172.050,186.678,169.992,186.398C165.380,185.774,160.895,185.294,156.439,184.189C148.300,182.172,141.382,179.999,135.684,177.674C130.836,175.694,127.372,174.390,125.295,173.762L118.171,164.064C120.863,162.583,123.602,160.869,126.389,158.922C137.047,151.484,146.259,140.427,150.475,127.735C151.903,123.428,152.786,118.794,153.125,113.832C153.292,111.407,153.414,108.973,153.489,106.531ZZ" class="cls-9"/></g></g><g id="shape-a54b1960-a4ea-8001-8005-b875e9ced6f6"><g class="fills" id="fills-a54b1960-a4ea-8001-8005-b875e9ced6f6"><path d="M206.544,129.714C206.503,129.880,206.378,129.999,206.167,130.069C206.124,130.082,206.080,130.090,206.036,130.095C205.091,130.133,204.272,130.425,203.297,130.363C199.497,130.101,195.821,129.405,192.267,128.273C192.136,128.231,192.078,128.142,192.093,128.004L192.130,127.593C192.142,127.470,192.248,127.379,192.365,127.391L192.375,127.391C193.380,127.554,194.355,127.716,195.366,127.566C198.865,127.067,202.239,126.437,205.844,126.661C206.795,126.723,207.541,127.533,207.561,128.527C207.564,128.744,207.313,129.016,206.807,129.345C206.676,129.433,206.587,129.555,206.544,129.714ZZ" class="cls-9"/></g></g><g id="shape-a54b1960-a4ea-8001-8005-b875e9cf1c06"><g class="fills" id="fills-a54b1960-a4ea-8001-8005-b875e9cf1c06"><path d="M203.600,134.743C202.775,135.047,201.990,135.413,201.243,135.841C200.282,136.398,199.499,136.659,198.893,136.621C197.102,136.517,195.778,135.724,194.921,134.243C194.754,133.952,194.760,133.669,194.940,133.394C195.046,133.234,195.241,133.161,195.424,133.213C197.816,133.903,200.183,134.139,202.524,133.919C203.166,133.860,203.525,134.135,203.600,134.743ZZ" class="cls-9"/></g></g><g id="shape-a54b1960-a4ea-8001-8005-b875e9cf1c07"><g class="fills" id="fills-a54b1960-a4ea-8001-8005-b875e9cf1c07"><path d="M176.791,173.250C180.524,174.914,183.532,177.096,185.818,179.796C188.812,183.337,190.898,187.042,192.074,190.910C193.191,194.575,194.329,198.231,195.489,201.880C195.589,202.192,195.707,202.492,195.843,202.779C195.839,202.929,195.834,203.008,195.830,203.016C195.741,203.184,195.539,203.248,195.379,203.158C195.346,203.139,195.317,203.115,195.292,203.086C193.365,200.868,191.579,198.572,189.932,196.196C190.139,196.196,190.308,196.170,190.440,196.115C190.692,196.020,190.822,195.730,190.731,195.468C190.724,195.450,190.717,195.434,190.710,195.416C189.745,193.365,188.794,191.401,187.857,189.526C186.899,187.616,185.763,185.726,184.525,184.072C183.157,182.247,181.664,180.471,180.045,178.749C179.264,177.925,178.646,177.064,178.191,176.166C177.713,175.218,177.245,174.247,176.791,173.250ZZ" class="cls-9"/></g></g><g id="shape-a54b1960-a4ea-8001-8005-b875e9cf53e6"><g class="fills" id="fills-a54b1960-a4ea-8001-8005-b875e9cf53e6"><path d="M168.328,292.923C167.779,293.393,167.395,293.917,167.180,294.496C166.790,295.548,166.558,296.129,166.486,296.237C165.996,296.977,165.453,297.645,164.860,298.240C164.698,298.397,164.689,298.661,164.840,298.831C164.840,298.831,164.840,298.831,164.842,298.833C165.152,299.179,165.530,299.216,165.972,298.946C168.001,297.707,170.069,296.515,172.175,295.370C172.082,295.724,172.340,295.905,172.947,295.914C171.798,296.662,170.664,297.403,169.543,298.135C169.515,298.151,168.648,298.627,166.941,299.564C165.908,300.126,165.018,300.864,164.268,301.780C164.160,301.327,164.246,300.944,164.525,300.631C164.661,300.482,164.643,300.357,164.471,300.257L162.833,299.283C162.634,299.167,162.418,299.108,162.187,299.108L160.931,299.115C160.568,299.115,160.273,298.808,160.272,298.430C160.272,298.270,160.326,298.116,160.423,297.991C161.123,297.092,162.139,296.968,162.988,296.282C164.627,294.955,166.407,293.836,168.328,292.923ZZ" class="cls-9"/></g></g><g id="shape-a54b1960-a4ea-8001-8005-b875e9cf53e7"><g class="fills" id="fills-a54b1960-a4ea-8001-8005-b875e9cf53e7"><path d="M195.173,397.589L176.038,399.268C175.611,398.781,175.057,398.542,174.375,398.550L174.794,398.375C174.986,398.296,175.039,398.157,174.955,397.957C174.899,397.820,174.768,397.718,174.561,397.652C172.703,397.070,170.211,396.183,167.084,394.994C154.711,390.281,142.483,385.193,130.401,379.730C127.011,378.196,119.395,374.336,107.552,368.155C103.397,365.983,100.331,364.099,98.353,362.501C94.075,359.314,90.977,355.363,89.063,350.645C87.867,347.691,86.985,344.307,86.420,340.492C85.746,335.966,85.312,332.751,85.116,330.845C84.084,320.752,83.093,310.658,82.144,300.562L82.168,298.122C82.168,297.931,82.250,297.879,82.414,297.966L82.622,298.085C82.674,298.114,82.706,298.160,82.718,298.222C83.249,301.151,83.658,304.069,83.944,306.976C84.775,315.257,87.276,323.532,90.415,331.219C93.725,339.331,98.985,345.907,106.194,350.944C113.871,356.306,121.937,361.229,130.395,365.714C144.332,373.102,158.442,380.104,173.078,386.962C180.383,390.389,187.747,393.932,195.173,397.589ZZ" class="cls-9"/></g></g><g id="shape-a54b1960-a4ea-8001-8005-b875e9cfa83e"><g class="fills" id="fills-a54b1960-a4ea-8001-8005-b875e9cfa83e"><path d="M268.923,387.729C268.113,391.768,266.351,395.007,263.635,397.444C262.956,398.052,262.483,398.538,262.211,398.904C262.087,399.070,261.944,399.209,261.780,399.322L260.399,400.264C260.058,400.595,259.735,400.944,259.257,401.001C257.877,401.180,256.522,401.137,255.190,400.869C254.273,400.686,253.364,400.603,252.463,400.620C251.505,400.639,249.712,400.869,248.862,400.464C248.591,400.335,248.593,400.211,248.868,400.089C249.172,399.953,249.460,399.882,249.736,399.877C249.780,399.877,249.780,399.880,249.736,399.889C248.902,400.119,248.418,400.032,248.282,399.634C250.618,398.681,252.941,397.941,255.250,397.413C257.151,396.970,258.940,396.315,260.771,395.646C262.888,394.864,264.617,393.455,265.957,391.416C266.328,390.854,267.316,389.626,268.923,387.729ZZ" class="cls-9"/></g></g><g id="shape-a54b1960-a4ea-8001-8005-b875e9cff4d0"><g class="fills" id="fills-a54b1960-a4ea-8001-8005-b875e9cff4d0"><path d="M175.049,305.347C164.282,311.821,151.416,318.483,145.153,329.832C140.890,340.624,159.567,349.690,165.370,354.775C187.068,369.367,212.710,385.134,238.773,377.202C253.118,372.531,267.407,359.847,265.820,342.874C265.826,342.715,265.867,342.427,266.077,342.475C266.216,342.615,266.104,342.969,266.381,342.887C268.876,353.383,269.866,364.974,267.219,375.472C261.329,384.538,250.227,387.070,240.153,387.659C239.632,387.676,239.929,386.920,240.290,386.898C249.573,384.601,256.211,382.269,263.923,377.470C270.462,370.587,248.304,379.445,246.301,379.291C239.338,380.938,232.987,382.592,226.856,385.788C223.656,386.699,220.265,392.695,217.417,391.967C186.119,376.207,156.424,352.360,125.556,336.584C123.727,335.183,118.723,335.212,118.138,332.753L117.809,311.949C118.100,312.279,117.986,314.818,118.557,314.907L122.671,316.903C127.361,317.628,133.314,313.088,137.917,311.594C144.616,309.847,171.421,299.574,175.049,305.347ZZ" class="cls-7"/></g></g><g id="shape-a54b1960-a4ea-8001-8005-b875e9cff4d1"><g class="fills" id="fills-a54b1960-a4ea-8001-8005-b875e9cff4d1"><path d="M89.333,355.298L93.812,359.411C90.259,360.583,93.537,366.649,94.565,372.222C97.004,381.712,103.875,389.299,107.515,397.806C108.942,399.473,108.143,404.634,110.141,404.272C98.309,405.111,87.021,408.235,76.095,412.989C88.521,412.340,105.058,409.406,119.741,409.876C120.340,410.523,118.434,410.576,118.025,410.675C100.384,413.064,81.565,417.386,64.995,423.672C76.589,422.005,88.558,419.677,100.070,416.790C121.988,411.480,144.941,403.319,166.917,400.652C140.244,406.970,108.918,419.001,83.041,423.129C82.180,423.544,81.526,424.167,80.404,424.003C80.264,423.995,80.233,424.051,80.308,424.171C82.212,425.370,75.758,425.980,74.966,426.317C73.810,426.538,72.404,427.228,70.749,428.389L60.329,429.917C59.862,401.586,73.425,378.253,89.333,355.298ZZ" class="cls-7"/></g></g><g id="shape-a54b1960-a4ea-8001-8005-b875e9d025b9"><g class="fills" id="fills-a54b1960-a4ea-8001-8005-b875e9d025b9"><path d="M68.487,461.740C69.692,463.802,70.842,465.565,71.939,467.032C75.698,472.053,80.287,476.052,85.704,479.027C93.287,483.189,101.596,485.569,110.256,486.961C112.901,487.386,115.409,487.757,117.776,488.074C117.812,488.078,119.269,488.298,122.149,488.738C124.598,489.110,127.063,489.275,129.543,489.232C123.391,489.235,117.240,489.215,111.091,489.171C108.275,489.149,105.410,488.870,102.510,488.705C97.836,488.445,92.442,487.793,86.329,486.747C80.569,485.764,74.938,484.748,69.438,483.698C64.218,482.704,58.218,481.245,51.438,479.317C47.009,478.064,42.800,476.532,38.810,474.722C36.850,473.835,33.675,471.800,35.100,469.130C36.061,467.325,39.803,465.944,41.595,465.440C49.378,463.242,56.762,462.468,65.349,461.520C65.867,461.462,66.386,461.463,66.905,461.525C67.385,461.579,67.913,461.652,68.487,461.740ZZ" class="cls-1"/></g></g><g id="shape-a54b1960-a4ea-8001-8005-b875e9d025ba"><g class="fills" id="fills-a54b1960-a4ea-8001-8005-b875e9d025ba"><ellipse cx="243.363" cy="339.471" rx="7.797" ry="9.307" transform="matrix(0.882157, -0.470955, 0.440379, 0.897812, -120.817462, 149.302821)" class="cls-11"/></g></g></g></svg>