<svg width="42.982" xmlns="http://www.w3.org/2000/svg" height="40.517" fill="none"><g mask="url(#a)" style="fill: rgb(0, 0, 0);"><defs><mask x="-.1" y="-.1" width="1.2" height="1.2" id="a"><rect width="280" height="280" rx="0" ry="0" fill="#fff"/></mask></defs><g style="fill: rgb(0, 0, 0);"><path d="M21.491,5.209C16.744,5.209,12.895,8.837,12.895,13.312L12.895,14.205C12.009,14.346,11.360,15.070,11.360,15.917L11.360,17.943C11.360,18.807,12.033,19.539,12.941,19.662C13.256,22.471,15.100,24.923,17.807,26.134L17.807,28.797L17.193,28.797C11.089,28.797,6.140,33.461,6.140,39.215L6.140,40.517L36.842,40.517L36.842,39.215C36.842,33.461,31.894,28.797,25.789,28.797L25.175,28.797L25.175,26.136C27.883,24.924,29.726,22.472,30.042,19.663C30.950,19.541,31.624,18.807,31.623,17.943L31.623,15.917C31.623,15.070,30.974,14.346,30.088,14.205L30.088,13.312C30.088,8.837,26.239,5.209,21.491,5.209ZZ" style="fill: rgb(253, 152, 65);" class="fills"/><path d="M17.807,26.134L17.807,27.292C18.958,27.807,20.217,28.073,21.491,28.072C22.810,28.072,24.059,27.792,25.175,27.292L25.175,26.134C24.024,26.649,22.766,26.916,21.491,26.914C20.217,26.916,18.958,26.649,17.807,26.134ZZ" style="fill: rgb(0, 0, 0); fill-opacity: 0.1;" class="fills"/><path d="M21.568,34.124C25.765,34.124,29.167,32.214,29.167,29.859C29.167,29.660,29.142,29.468,29.096,29.277C33.705,30.641,36.842,34.667,36.842,39.221L36.842,40.516L6.140,40.516L6.140,39.221C6.140,34.607,9.358,30.542,14.051,29.229C13.996,29.435,13.969,29.647,13.969,29.859C13.969,32.214,17.371,34.124,21.568,34.124ZZ" style="fill: rgb(37, 85, 124);" class="fills"/><path d="M19.342,21.560C19.342,22.679,20.304,23.586,21.491,23.586C22.678,23.586,23.640,22.679,23.640,21.560" fill-rule="evenodd" clip-rule="evenodd" style="fill: rgb(0, 0, 0); fill-opacity: 0.7;" class="fills"/><path d="M19.649,18.811C19.649,19.450,20.473,19.968,21.491,19.968C22.509,19.968,23.333,19.450,23.333,18.811" fill-rule="evenodd" clip-rule="evenodd" style="fill: rgb(0, 0, 0); fill-opacity: 0.16;" class="fills"/><path d="M15.375,16.271C15.659,15.722,16.296,15.338,17.039,15.338C17.778,15.338,18.415,15.719,18.700,16.264C18.785,16.428,18.664,16.561,18.542,16.462C18.119,16.134,17.586,15.958,17.038,15.966C16.465,15.966,15.945,16.146,15.572,16.433C15.434,16.539,15.293,16.432,15.375,16.271ZZM24.279,16.271C24.563,15.722,25.200,15.338,25.943,15.338C26.681,15.338,27.318,15.719,27.604,16.264C27.688,16.428,27.567,16.561,27.446,16.462C27.023,16.134,26.489,15.958,25.941,15.966C25.367,15.966,24.847,16.146,24.474,16.433C24.336,16.539,24.195,16.432,24.279,16.271ZZ" fill-rule="evenodd" clip-rule="evenodd" style="fill: rgb(0, 0, 0); fill-opacity: 0.6;" class="fills"/><path d="M16.390,12.094L16.528,12.036C17.336,11.734,18.556,11.861,19.301,12.198C19.388,12.237,19.328,12.365,19.239,12.357C16.949,12.192,15.408,13.537,14.884,14.448C14.869,14.474,14.821,14.477,14.809,14.453C14.456,13.683,15.492,12.430,16.390,12.094ZZM26.250,13.612C27.133,13.723,28.513,14.451,28.398,15.290C28.393,15.319,28.350,15.328,28.330,15.305C27.948,14.842,24.997,14.166,23.923,14.306C23.825,14.321,23.759,14.224,23.826,14.165C24.402,13.652,25.456,13.511,26.250,13.612ZZ" fill-rule="evenodd" clip-rule="evenodd" style="fill: rgb(0, 0, 0); fill-opacity: 0.6;" class="fills"/><g style="fill: rgb(0, 0, 0);"><path d="M8.750,13.095C8.750,13.754,9.011,14.345,9.495,14.654C9.633,14.742,9.874,14.788,10.132,14.809L10.132,26.335C10.132,26.975,10.681,27.493,11.360,27.493L17.807,27.493L17.807,26.134C15.049,24.901,13.191,22.382,12.925,19.516C12.025,19.387,11.359,18.657,11.360,17.798L11.360,15.917C11.360,15.410,11.590,14.958,11.954,14.639C13.725,14.262,15.653,13.550,17.552,12.516C19.414,11.504,21.006,10.311,22.231,9.080C21.745,10.161,21.102,11.173,20.320,12.087C22.266,11.288,23.590,10.003,24.296,8.233C24.353,8.367,24.413,8.500,24.475,8.633C26.050,11.965,28.755,14.328,31.502,15.107C31.578,15.412,31.623,15.697,31.623,15.917L31.623,17.798C31.623,18.657,30.958,19.387,30.057,19.516C29.791,22.381,27.933,24.900,25.175,26.133L25.175,27.493L27.939,27.493C30.652,27.493,32.851,25.420,32.851,22.862L32.851,15.031C32.851,15.021,32.851,15.007,32.846,14.991C32.836,14.175,32.803,12.260,32.754,11.899C32.002,6.577,27.185,2.603,21.490,2.605C15.951,2.605,11.337,6.342,10.284,11.287C9.436,11.287,8.748,12.097,8.750,13.095ZZ" style="fill: rgb(74, 49, 44);" class="fills"/><path d="M24.475,8.633C26.308,12.512,29.673,15.076,32.851,15.361L32.851,13.312C32.858,7.788,28.405,3.166,22.571,2.641C16.736,2.116,11.436,5.861,10.334,11.287L10.285,11.287C9.438,11.287,8.750,12.097,8.750,13.095C8.750,14.033,9.356,14.804,10.132,14.895L10.132,14.917L10.277,14.903L10.285,14.903C10.383,14.903,10.481,14.892,10.577,14.871C12.695,14.615,15.148,13.825,17.552,12.516C19.414,11.504,21.006,10.311,22.231,9.080C21.745,10.161,21.102,11.173,20.320,12.087C22.266,11.288,23.590,10.003,24.296,8.233C24.353,8.367,24.413,8.500,24.475,8.633ZZ" style="fill: rgb(255, 255, 255); fill-opacity: 0.08;" class="fills"/></g></g></g></svg>